<?xml version="1.0" encoding="UTF-8"?>
<svg id="Layer_1" data-name="Layer 1" xmlns="http://www.w3.org/2000/svg" version="1.1" viewBox="0 0 512 512">
  <defs>
    <style>
      .cls-1 {
        fill: #000;
        stroke-width: 0px;
      }
    </style>
  </defs>
  <path class="cls-1" d="M371,294.3v76.7h-76.7c-27.4,0-52.6-14.6-66.3-38.3,7.2,0,14.4-.8,21.5-2.4,10.9,13.6,27.4,21.5,44.8,21.5h57.5v-57.5c0-17.4-7.9-33.9-21.6-44.8,1.5-7.1,2.4-14.3,2.4-21.5,23.7,13.7,38.3,39,38.3,66.3ZM313.5,227.3c0-47.6-38.6-86.2-86.2-86.2s-86.2,38.6-86.2,86.2v86.2h86.2c47.6,0,86.2-38.6,86.2-86.2ZM160.2,227.3c0-37,30-67.1,67.1-67.1s67.1,30,67.1,67.1-30,67.1-67.1,67.1h-67.1v-67.1Z"/>
  <path class="cls-1" d="M256,12c32.9,0,64.9,6.4,95,19.2,29.1,12.3,55.1,29.9,77.6,52.3,22.4,22.4,40,48.5,52.3,77.6,12.7,30.1,19.2,62,19.2,95s-6.4,64.9-19.2,95c-12.3,29.1-29.9,55.1-52.3,77.6-22.4,22.4-48.5,40-77.6,52.3-30.1,12.7-62,19.2-95,19.2s-64.9-6.4-95-19.2c-29.1-12.3-55.1-29.9-77.6-52.3-22.4-22.4-40-48.5-52.3-77.6-12.7-30.1-19.2-62-19.2-95s6.4-64.9,19.2-95c12.3-29.1,29.9-55.1,52.3-77.6,22.4-22.4,48.5-40,77.6-52.3,30.1-12.7,62-19.2,95-19.2M256,0C114.6,0,0,114.6,0,256s114.6,256,256,256,256-114.6,256-256S397.4,0,256,0h0Z"/>
</svg>