<?xml version="1.0" encoding="UTF-8"?>
<svg xmlns="http://www.w3.org/2000/svg" version="1.1" viewBox="0 0 500 500">
  <defs>
    <style>
      .cls-1, .cls-2 {
        fill: #000;
        stroke-width: 0px;
      }

      .cls-3 {
        isolation: isolate;
      }

      .cls-2 {
        fill-rule: evenodd;
      }
    </style>
  </defs>
  <g id="_JOIN_THE_COMMUNITY_JOIN_THE_COMMUNITY" data-name=" • JOIN THE COMMUNITY • JOIN THE COMMUNITY" class="cls-3">
    <g id="_JOIN_THE_COMMUNITY_JOIN_THE_COMMUNITY-2" data-name=" • JOIN THE COMMUNITY • JOIN THE COMMUNITY">
      <path class="cls-2" d="M89.9,400.2l-14,12-4-4.7-4.7,4,4,4.7-4.7,4,4,4.7,23.3-20-4-4.7ZM61.2,138.4l2.9-5.4-27-14.5-2.9,5.4,5.4,2.9-2.9,5.4,5.4,2.9,2.9-5.4,16.2,8.7ZM16.5,204.2l-6.1-.9-.9,6.1,6.1.9.9-6.1ZM73.2,100.7l-4.7-3.9-3.9,4.7,4.7,3.9,3.9-4.7ZM47.5,137.9l-5.4-2.9-2.9,5.4,5.4,2.9,2.9-5.4ZM9.5,209.4l-6.1-.9-1.7,12.2,6.1.9,1.7-12.2ZM74.9,118l-14.2-11.7,3.9-4.7-4.7-3.9-3.9,4.7-4.7-3.9-3.9,4.7,23.7,19.5,3.9-4.7ZM14.1,187.3l17.5,5.6,1.9-5.8,5.8,1.9,3.8-11.7-5.8-1.9,1.9-5.8-17.5-5.6-1.9,5.8-5.8-1.9-3.8,11.7,5.8,1.9-1.9,5.8ZM20,169.8l17.1,5.5-3.8,11.7-17.1-5.5,3.8-11.7ZM40.7,316.1l-11.8,3.3-3.3-11.8,11.8-3.3-1.7-5.9-29.5,8.4,1.7,5.9,11.8-3.3,3.3,11.8-11.8,3.3,1.7,5.9,29.5-8.4-1.7-5.9ZM73.2,390.3l4.6-4-4-4.7-23.3,20,4,4.7,14-12,4,4.7,4.7-4-4-4.7ZM52,344.6l-2.6-5.6-22.3,10.3-2.6-5.6-5.6,2.6,7.7,16.7,5.6-2.6-2.6-5.6,22.3-10.3ZM72.5,399l-4.7,4,4,4.7,4.7-4-4-4.7ZM33.8,212.9l-6.1-.9-1.7,12.2,6.1.9,1.7-12.2ZM31.3,268l-6.1.7,1.5,12.2-6.1.7-1.5-12.2-6.1.7,1.5,12.2-6.1.7-1.5-12.2-6.1.7,2.2,18.3,30.5-3.7-2.2-18.3ZM22.6,205.1l-.9,6.1,6.1.9.9-6.1-6.1-.9ZM25.2,230.3l.9-6.1-18.2-2.6-.9,6.1,18.2,2.6ZM52.5,154.6l-16.2-8.7,2.9-5.4-5.4-2.9-2.9,5.4-5.4-2.9-2.9,5.4,27,14.5,2.9-5.4ZM404.9,94.8l13.5-12.5,4.2,4.5,4.5-4.2-4.2-4.5,4.5-4.2-4.2-4.5-22.6,20.8,4.2,4.5ZM391.2,82.5l19.5-23.7-4.7-3.9-19.5,23.7,4.7,3.9ZM86.6,103.8l3.9-4.7-23.7-19.5-3.9,4.7,4.7,3.9-3.9,4.7,4.7,3.9,3.9-4.7,14.2,11.7ZM422.3,95.5l4.5-4.2-4.2-4.5-4.5,4.2,4.2,4.5ZM421.9,104.2l-4.5,4.2,4.2,4.5,22.6-20.8-4.2-4.5-13.5,12.5-4.2-4.5-4.5,4.2,4.2,4.5ZM468,225l6.1-1-1.9-12.1,6.1-1,1.9,12.1,6.1-1-1.9-12.1,6.1-1,1.9,12.1,6.1-1-2.9-18.2-30.3,4.8,2.9,18.2ZM332.8,33.9l-5.7-2.3-2.3,5.7,5.7,2.3,2.3-5.7ZM456.9,177.3l11.7-3.8,3.8,11.7-11.7,3.8,1.9,5.8,29.2-9.4-1.9-5.8-11.7,3.8-3.8-11.7,11.7-3.8-1.9-5.8-29.2,9.4,1.9,5.8ZM447.4,154.6l21.9-11,2.8,5.5,5.5-2.8-8.3-16.5-5.5,2.8,2.8,5.5-21.9,11,2.8,5.5ZM361.3,61.2l10.4,6.5,3.3-5.2,5.2,3.3,9.8-15.6-5.2-3.3,3.3-5.2-10.4-6.5-3.3,5.2-5.2-3.3-9.8,15.6,5.2,3.3-3.3,5.2ZM374.2,40.6l10.4,6.5-9.5,15.2-10.4-6.5,9.5-15.2ZM133.5,64.3l-9.1-16,5.3-3-3-5.3-5.3,3-3-5.3-5.3,3,15.2,26.7,5.3-3ZM113.5,78.6l-4-4.7-9.4,7.9,4,4.7,9.4-7.9ZM98.4,51.2l-4.7,4,15.8,18.8,4.7-4-15.8-18.8ZM100.1,81.8l-15.8-18.8-4.7,4,15.8,18.8,4.7-4ZM356.8,23.9l-5.7-2.3-9.4,22.7,5.7,2.3,9.4-22.7ZM289.5,15.8l-6.1-.9-.9,6.1,6.1.9.9-6.1ZM339.4,49.9l2.3-5.7-11.3-4.7-2.3,5.7,11.3,4.7ZM146.4,49.8l3,5.3,5.3-3-15.2-26.7-5.3,3,9.1,16-5.3,3,3,5.3,5.3-3ZM138,47.5l-3-5.3-5.3,3,3,5.3,5.3-3ZM154.9,19l11.3,28.5,5.7-2.3-11.3-28.5-5.7,2.3ZM418.3,391l-3.7,4.9,24.3,18.7,3.7-4.9-4.9-3.7,3.7-4.9-4.9-3.7-3.7,4.9-14.6-11.2ZM431.8,393.7l4.9,3.7,3.7-4.9-4.9-3.7-3.7,4.9ZM405.5,413.5l16.5,18.2,4.6-4.1-16.5-18.2-4.6,4.1ZM442.5,355.6l-2.7,5.5,27.5,13.6,2.7-5.5-5.5-2.7,2.7-5.5-5.5-2.7-2.7,5.5-16.5-8.2ZM429.5,376.4l14.6,11.2-3.7,4.9,4.9,3.7,3.7-4.9,4.9,3.7,3.7-4.9-24.3-18.7-3.7,4.9ZM372.8,432.1l9.7,15.7-5.2,3.2,3.2,5.2,5.2-3.2,3.2,5.2,5.2-3.2-16.1-26.1-5.2,3.2ZM392.3,417.1l4.1,4.6,9.1-8.2-4.1-4.6-9.1,8.2ZM360.4,447l-3.2-5.2-5.2,3.2,16.1,26.1,5.2-3.2-9.7-15.7,5.2-3.2-3.2-5.2-5.2,3.2ZM408.3,444l4.6-4.1-16.5-18.2-4.6,4.1,16.5,18.2ZM368.8,449l3.2,5.2,5.2-3.2-3.2-5.2-5.2,3.2ZM467.3,280.2l6.1.7,1.3-12.2-6.1-.7-1.3,12.2ZM478.8,287.6l.7-6.1-6.1-.7-.7,6.1,6.1.7ZM475.4,262.5l-.7,6.1,18.3,2,.7-6.1-18.3-2ZM493,270.6l-1.3,12.2,6.1.7,1.3-12.2-6.1-.7ZM487.9,305.1l-17.7-5-1.7,5.9-5.9-1.7-3.3,11.8,5.9,1.7-1.7,5.9,17.7,5,1.7-5.9,5.9,1.7,3.3-11.8-5.9-1.7,1.7-5.9ZM482.7,322.7l-17.2-4.9,3.3-11.8,17.2,4.9-3.3,11.8ZM450.7,339.1l16.5,8.2-2.7,5.5,5.5,2.7,2.7-5.5,5.5,2.7,2.7-5.5-27.5-13.6-2.7,5.5ZM456.2,355.5l5.5,2.7,2.7-5.5-5.5-2.7-2.7,5.5ZM484.9,288.3l6.1.7.7-6.1-6.1-.7-.7,6.1ZM240.9,0l-6.1.6.6,6.1,6.1-.6L240.9,0ZM202.5,483.2l6,1.1,1.1-6-6-1.1-1.1,6ZM194.8,12.5l-1.6-5.9-17.8,4.8,1.6,5.9,5.9-1.6,6.4,23.7,5.9-1.6-6.4-23.7,5.9-1.6ZM217,8.5l.6,6.1,6.1-.6-.6-6.1-6.1.6ZM210.3,3l.6,6.1,6.1-.6-.6-6.1-6.1.6ZM225.5,32.3l6.1-.6-1.8-18.3-6.1.6,1.8,18.3ZM153.8,447.4l-2.5,5.6,11.2,5.1,2.5-5.6-11.2-5.1ZM159.9,463.6l5.6,2.5,2.5-5.6-5.6-2.5-2.5,5.6ZM132.4,435.4l-10.2-6.9-3.4,5.1-5.1-3.4-10.3,15.3,5.1,3.4-3.4,5.1,10.2,6.9,3.4-5.1,5.1,3.4,10.3-15.3-5.1-3.4,3.4-5.1ZM118.8,455.5l-10.2-6.9,10-14.8,10.2,6.9-10,14.8ZM135.5,472.8l5.6,2.5,10.2-22.4-5.6-2.5-10.2,22.4ZM325,482.3l-7.3-23.5-5.9,1.8,7.3,23.5-5.9,1.8,1.8,5.9,17.6-5.4-1.8-5.9-5.9,1.8ZM291.2,490.7l.8,6.1,6.1-.8-.8-6.1-6.1.8ZM284.4,485.4l.8,6.1,6.1-.8-.8-6.1-6.1.8ZM275.9,468l2.4,18.3,6.1-.8-2.4-18.3-6.1.8ZM229.8,13.4l6.1-.6-.6-6.1-6.1.6.6,6.1ZM335,452.4l12.3,28.1,5.6-2.5-12.3-28.1-5.6,2.5ZM103.1,413l-20.2,23.1,4.6,4,20.2-23.1-4.6-4ZM273,493.1l6.1-.8-.8-6.1-6.1.8.8,6.1ZM267.7,500l6.1-.8-.8-6.1-6.1.8.8,6.1Z"/>
    </g>
  </g>
  <g id="Layer_2" data-name="Layer 2">
    <path class="cls-1" d="M318.6,215.7c0-56.8-46-102.8-102.8-102.8s-102.8,46-102.8,102.8v102.8h102.8c56.8,0,102.8-46.1,102.8-102.8ZM215.7,284.3h-68.6v-68.6c0-37.9,30.7-68.6,68.6-68.6s68.6,30.7,68.6,68.6-30.7,68.6-68.6,68.6ZM387.1,295.7v91.4h-91.4c-32.6,0-62.8-17.5-79.1-45.7,12.9,0,25.7-2.2,38-6.2,10.7,11.2,25.6,17.6,41.1,17.6h57.1v-57.1c0-15.5-6.4-30.4-17.6-41.1,4-12.2,6.1-25,6.2-37.9,28.3,16.3,45.7,46.4,45.7,79.1Z"/>
  </g>
</svg>