<?xml version="1.0" encoding="UTF-8"?>
<svg xmlns="http://www.w3.org/2000/svg" xmlns:xlink="http://www.w3.org/1999/xlink" version="1.1" viewBox="0 0 1297 300">
  <defs>
    <style>
      .cls-1 {
        clip-path: url(#clippath);
      }

      .cls-2 {
        fill: none;
      }

      .cls-2, .cls-3, .cls-4, .cls-5, .cls-6, .cls-7, .cls-8 {
        stroke-width: 0px;
      }

      .cls-3, .cls-4 {
        fill: #cf0;
      }

      .cls-9 {
        clip-path: url(#clippath-1);
      }

      .cls-4, .cls-6, .cls-8 {
        fill-rule: evenodd;
      }

      .cls-5, .cls-8 {
        fill: #000;
      }

      .cls-6, .cls-7 {
        fill: #fff;
      }
    </style>
    <clipPath id="clippath">
      <rect class="cls-2" x="184.5" y="4.6" width="159.1" height="160.5"/>
    </clipPath>
    <clipPath id="clippath-1">
      <rect class="cls-2" x="29.6" y="4.6" width="158.4" height="160.5"/>
    </clipPath>
  </defs>
  <g id="Layer_1" data-name="Layer 1">
    <path class="cls-8" d="M1032.6,37.2c8.3-4,16.4-6,24-6h0c5.8,0,11.4,1.2,16.7,3.5,10.4,4.6,18.6,13.3,24.2,25.8,2.1,4.7,3.9,10,5.2,15.7.2-.4.4-.7.6-1.1,7.2-13.2,15.6-23.3,24.8-30.1,9.3-6.8,19.4-10.3,30.1-10.3s7.5.4,11.3,1.3c10.6,2.4,19,9,24.2,14.2,5.7,5.6,10.3,12.2,13.1,18.7,1.2-.6,2.4-1.2,3.6-1.7,7.3-3.1,15-4.7,22.9-4.7s10.5.7,15.8,2h.6c20.5,5.4,35.3,18.5,42.5,37.2l.4-.4,2,7.7c4.4,17.2,2.8,37.6-4.5,57.6-10.6,28.9-27.9,56.2-47.5,74.9-20.8,19.8-43.4,29.9-67.1,29.9s-15.1-1-22.6-3.1c-17.8-4.9-33.3-14.2-45.2-26.9-7.2,10-15.4,17.9-24.6,23.4-.8.5-1.7.9-2.6,1.3-9.8,3.9-19.1,5.9-27.8,5.9s-11.5-.9-16.7-2.7c-12.3-4.2-22.1-13-29.4-26.1-2.2-4-4.1-8.4-5.9-13.2-16.6,21.2-38.4,33.1-63.5,34.7-2.3.1-4.6.2-6.8.2-16,0-30.9-3.6-44.4-10.7-12-6.3-22.7-15.4-31.6-26.8-11.8,10.5-25.2,18.3-34.8,23.1-20.5,10.3-42.8,16.9-59.5,17.8-1.8,0-3.5.1-5.2.1-19.2,0-34.1-6-44.4-17.7-2-2.2-3.7-4.7-5.3-7.3-18.7,13-44.6,22.6-66.9,24.6-3.3.3-6.6.5-9.8.5-29,0-50.9-13.1-61.5-36.7-1.4-3.2-2.5-6.7-3.3-10.5-14.4,12.6-28.9,21.6-39.1,27.2-8,4.4-36.1,18.7-63.1,19.1-.5,0-.9,0-1.4,0-14.1,0-25.8-3.9-34.6-11.6-10.6-9.3-16.1-23-16.3-40.7-.2-18.4,4.1-45.6,11.8-74.4,7.6-28.6,17.2-54.4,26.4-70.6,15.9-28,43-32.7,62.1-33.7.3,0,.6,0,.9,0,2,0,4-.1,6-.1,25.8,0,43.9,6.3,54.5,11.6,12.9,6.4,23.1,15.2,30.4,26.1,5.4-8.7,10.9-15.2,16.8-19.7,4.7-3.7,10.9-6.9,19-9.8,6.3-2.2,13.5-4.2,21.3-5.8,12-2.5,24.4-3.9,34.1-3.9s4.3,0,6.1.2h0s.2,0,.2,0c11.2,1,21.9,5.4,29.3,12.2,5.1,4.7,8.7,10.5,10.3,16.9,1,4.1,1.2,8.3.6,12.5,3.4-6,7.3-12.2,12-17.8,10.9-13.2,23.8-20.7,38.2-22.3h.3c2.6-.3,5.1-.5,7.6-.5,12.7,0,23.3,3.8,31.4,11.3,4.9,4.5,8.5,10,11,16.6,8.8-14,21.5-22.3,37.1-24.1.2,0,.4,0,.6,0,1.7-.2,3.4-.3,5.1-.3,16.1,0,31.6,7.8,42.6,21.3,0,.1.2.2.2.3,0,.1.2.2.2.3.7-1,1.4-1.9,2.2-2.8,8.8-10.6,20.8-16.7,34.7-17.9h.2c1.9-.1,3.7-.2,5.5-.2,16.5,0,31.1,5.8,42.3,16.9,5.7-9,13.2-15.7,22.2-20Z"/>
  </g>
  <g id="Layer_2" data-name="Layer 2">
    <path class="cls-4" d="M1038.1,53c41.8-19.9,50.8,36.3,45.6,65.1-2.3,12.7-6.9,22.5-11.7,32.4-2.8,5.9-5.6,11.8-8,18.4v.2c0,0-.1.1-.1.1-.7,1.9-1.9,5.3,1.2,5.1.9-.4,1-1.3,1.2-2.7.2-1.7.4-4.1,2.4-7.1.5-.8,1-1.6,1.6-2.5,2.9-4.6,5.7-9.2,13.4-10.5,5.2,0,9.2.9,12.2,2.7.3-4.2.8-8.3,1.4-12.5,4.7-28.9,25.4-97.9,65.6-88.7,12.1,2.8,21.1,12.6,25.3,23.9,5.8,15.8-3.5,32.6-12.7,49.3-5.1,9.2-10.2,18.4-12.6,27.4-.5,1.8-1.5,5.6-1.7,7.2-.3,2.1,1.7,5.3,3.3,3.1.6-.8,2.4-4.8,2.9-6.1,1.1-2.6,2-5.6,3-8.4h0c0,0,0,0,0,0,.3-.9.6-1.8.9-2.7,9.3-28,29.4-75.9,71.4-65,36.6,9.5,38.9,48,27.8,78.1-16.6,45.4-59.5,105.7-115.3,90.3-26.1-7.2-42.9-24.2-51.8-45.5-5.7,16.6-17,34.7-32.3,43.8-51.7,20.9-63.4-33-63.7-82.4-9.6,39.1-32.1,77.1-73.9,79.7-37.9,2.4-64.7-19.4-79.3-49.7-18.3,30-70.3,51.8-97.8,53.2-33.8,1.8-44.7-17.7-44.5-43.7-3.4,7.2-9.4,14.3-17.7,20.4-29.3,21.6-93.9,40.6-113.4-2.6-6.5-14.4-.7-42.6,2.8-58.1.3-1.2.6-2.4.9-3.7-14.3,30-43,54.3-71.4,70-28.3,15.6-87.8,35.2-88.3-17.4-.3-35.6,18.2-104.8,35.8-135.9,10.2-18.1,27.4-23.4,47.3-24.5,34.1-1.8,74.9,11,83.6,48.1,2.3,9.7,2.8,19.1,2,28.2,8.2-24.8,19.9-52,33.2-62.4,13.1-10.3,51.6-16.8,68-15.4,13.2,1.1,29,10.3,22.5,25.7-3.9,9.3-17.2,12.9-29.1,16.2-5,1.4-9.7,2.7-13.4,4.3h-.2c-1.6.8-6.4,2.9-7.1,3.7-2.2,2.6.1,3.8,2.8,3.5,4.5-.5,8.8-1.5,13.1-2.5,7.2-1.7,14.5-3.4,22.8-2.5,19.3,1.9,27.8,23.7,15.8,38.8-10.6,13.4-30.1,18.7-48,23.6-6.6,1.8-13.1,3.6-18.7,5.7-20.7,7.7,1,3.2,1,3.2,2-.2,4.1-.5,6.1-.7,7.1-.9,14.2-1.8,21.4-1.3,17.3,1.2,26.9,7.7,30,16.3,5.6-33.5,22.8-71.3,32.1-89.3h0c9.1-17.7,20.9-40.7,42.9-43.2,46-5.2,36.2,50.8,21.9,76.4-6.3,11.2-13.9,19-21.6,26.9-4.5,4.6-9.1,9.3-13.5,14.8,0,0-.1.1-.2.2-1.3,1.6-3.6,4.4-.5,5.3,1.5-.1,9.2-6.9,15.1-12,2.7-2.4,5-4.4,6.1-5.3,8.6-6.6,22.6-15.6,33.5-16.7,4.3-.4,8.3.1,11.9,1.4-2.6-33.5,1-84.2,35.2-87.9,12.3-1.3,24.1,5,31.7,14.4,12.3,15.2,11.9,49.1,11.6,76.2-.1,9.2-.2,17.5.2,24.1.1,1.8.4,5.8.7,7.3.4,2,3.4,4.4,4.1,1.9.3-.9.7-5.3.7-6.7.2-2.8.1-5.9,0-8.9,0-1,0-1.9,0-2.9,0-3.1-.1-6.6-.3-10.4-1.1-33.2-2.9-90.9,35.8-93.9,30.9-2.4,46.3,21.1,50.5,47.2,2.8-19.2,7-43.2,26.2-52.3h0s0,0,0,0ZM1060.7,182.7c0-.4,0-.9.3-1.3,0,0,.1-.1.2-.2,0,0,.2-.2.5-.4.2-.1,1.1-.6,2.1.1.4.3.5.6.6.8s.1.4.1.5c0,.3,0,.6,0,.7v.2s0,0,0,0c0,0,0,0,0,.1,0,.2-.1.4-.2.5h0s0,.1,0,.1h0c-.2,1-1.2,1.7-2.1,1.5-1-.2-1.7-1.1-1.5-2.1,0-.2.1-.4.1-.5h0ZM1206.6,103.2c.3-.5.7-.9,1.2-1.1,0,0,.2,0,.4-.1.1,0,.4-.1.8-.1.3,0,1.7.1,2.2,1.6.2.6.2,1.1.1,1.4s-.2.5-.2.6c-.2.4-.5.6-.5.7-.1.1-.2.2-.3.3-.1.1-.3.3-.4.4h0c0,0-.1.1-.1.1h0c-.9.9-2.4.9-3.4,0-1-.9-1-2.5-.1-3.5.1-.1.3-.3.4-.4h0ZM1158.7,171.6c-.4.5-.5,1-.5,1.5,0,.1-.1.4-.2.5-.3,1.3.5,2.6,1.8,3,1.3.3,2.6-.5,2.9-1.7h0s0-.1,0-.2h0c0-.2.1-.4.2-.6,0-.1,0-.2.1-.4,0,0,.1-.4.1-.9,0-.1,0-.4-.1-.7,0-.3-.3-.8-.8-1.2-1.2-1-2.5-.4-2.7-.3-.4.2-.6.4-.6.5-.1.1-.2.2-.3.3h0ZM1225.6,95.7c.7.6,1.8.8,2.7.3,1.2-.6,1.7-2.1,1.1-3.3-.3-.6-.8-1.3-1.8-1.7-.4-.1-.8-.2-1-.2h-.4c-1.4,0-2.4,1.1-2.4,2.4s.8,2.1,1.9,2.4ZM944.5,87.7c-.4.4-.6,1-.6,1.5,0,.1-.2.3-.2.5-.4,1.3.3,2.7,1.6,3.1,1.3.4,2.6-.3,3-1.5h0s0,0,0,0h0s0-.1,0-.1h0c0-.2.2-.4.2-.6,0-.1,0-.2.1-.4,0,0,.1-.4.2-.9,0-.1,0-.4,0-.7,0-.3-.2-.8-.7-1.2-1.1-1.1-2.4-.6-2.7-.5-.4.2-.6.4-.7.4-.1.1-.2.2-.3.3h0ZM922.8,196.4c-.3-.5-.4-1-.3-1.6,0,0,0-.2,0-.4,0-.1.1-.4.3-.8.2-.3.9-1.4,2.5-1.2.6,0,1,.4,1.3.6.2.2.4.4.4.5.2.4.3.7.4.8,0,.1,0,.3.1.4,0,.2,0,.4.1.6h0s0,.1,0,.2h0c.3,1.3-.4,2.6-1.6,3-1.3.4-2.7-.3-3.1-1.6,0-.2-.1-.4-.1-.5h0,0ZM961.2,77.6c-.9.5-1.9.3-2.7-.3-1.1-.3-1.9-1.2-1.9-2.4s1.1-2.4,2.4-2.4h.4c.2,0,.6,0,1,.2,1,.4,1.5,1.1,1.8,1.7.6,1.2.1,2.7-1.1,3.3h0ZM763.7,183.1c.4-.3,1-.5,1.5-.5s.2,0,.4,0c.1,0,.4,0,.8.2.3.1,1.5.8,1.5,2.3,0,.6-.2,1.1-.4,1.3-.2.2-.3.4-.4.5-.3.3-.7.4-.7.5-.1,0-.3.1-.4.1,0,0-.2,0-.3.1,0,0-.2,0-.2,0h0c0,0-.1,0-.1,0h0c-1.2.5-2.6,0-3.2-1.2-.6-1.2,0-2.7,1.2-3.3.2,0,.4-.2.5-.2h0ZM639.8,176.3s0,0,0,0c-.6.3-1.3,0-1.6-.6-.3-.6,0-1.3.6-1.6.1,0,.3-.1.5-.2h.2c.2-.3.5-.5.9-.5h.2c0,0,.2,0,.4.1.1,0,.8.4.8,1.2,0,.3-.1.5-.2.7,0,.1-.2.2-.2.3-.2.1-.4.2-.4.3,0,0-.2,0-.3.1,0,0-.2,0-.3.1,0,0-.1,0-.2,0h0c0,0-.1,0-.1,0h0ZM658.6,104.2c-.5,0-.9.2-1.2.5h0c-.1,0-.4.1-.5.2-.9.4-1.3,1.5-.9,2.4.4.9,1.5,1.3,2.4.9,0,0,0,0,0,0h0s0,0,.2,0h0c.1,0,.4-.1.5-.2.1,0,.2,0,.3-.1,0,0,.3-.1.6-.4,0,0,.2-.2.3-.4.1-.2.3-.5.3-1,0-1.2-.9-1.6-1.1-1.7-.3-.1-.5-.1-.6-.2h-.3s0,0,0,0ZM492.1,168.7c.4.7,3.8,1.2,4.7,0,.5-.6,1.1-3.5,1.6-6.2.3-1.7.7-3.3.9-4.1,3.6-11.4,9.9-21.3,19.6-28.6,1.1-.8,4.2-2.6,7-4.2,2.9-1.6,5.5-3.2,5.8-3.5,1.9-2.7,0-5-3.1-4.4-9.6,1.8-24,17.4-28.8,25.7-2.2,3.8-9.8,21.8-7.7,25.2h0ZM538.3,114c.4-.3,1-.5,1.5-.5s.2,0,.4,0c.1,0,.4,0,.8.2.3.1,1.5.8,1.5,2.3,0,.6-.3,1.1-.4,1.3-.2.3-.3.4-.4.5-.3.3-.7.4-.7.5-.1,0-.3.1-.4.1-.2,0-.4.1-.5.2h0c0,0-.1,0-.1,0h0c-1.2.5-2.6,0-3.2-1.2-.6-1.2,0-2.7,1.2-3.3.2,0,.4-.2.5-.2h0s0,0,0,0Z"/>
  </g>
  <g id="Layer_3" data-name="Layer 3">
    <path class="cls-3" d="M214.8,7.2l-23.2-.2c-31.1-.3-61.4,9.9-86,28.9l-13.8,10.7c-26.3,20.3-44.5,49.5-51.2,82.2l-8.6,42.1c-1.6,7.7-5.8,14.7-11.9,19.7l-3.5,2.8c-7.1,5.8-10.6,14.8-9.4,23.9,1.4,10.4,8.8,19.1,18.9,22.1l16.7,4.9c6.7,2,13,5.2,18.5,9.6l6.4,5.1c7.9,6.4,16.8,11.4,26.4,15l28.2,10.4c25.8,9.6,53.8,11.3,80.5,4.9l25.8-6.1c25.9-6.2,49.4-19.6,67.8-38.7l10.6-11c20.2-20.9,33.2-47.7,37.4-76.5l4.9-33.9c.7-4.6,2.4-9.1,5-13,7.8-11.7,9.1-24.2,0-35l-2.6-3.2c-4.5-5.4-10.6-9.3-17.4-11.2-4-1.1-10-6-13.4-8.5l-24.9-18.1c-23.6-17.2-51.9-26.5-81-26.8Z"/>
    <path class="cls-8" d="M101.4,30.4C127.2,10.4,159-.3,191.7,0l23.2.2c30.6.3,60.3,10.1,85.1,28.1l24.9,18.1c.8.6,1.6,1.2,2.3,1.7,1.2.9,2.5,1.9,4,2.9,2.4,1.7,4.1,2.5,4.8,2.7,8.2,2.2,15.5,6.9,20.9,13.4l2.6,3.2c5.6,6.7,8.1,14.1,7.9,21.8-.2,7.6-3.1,14.9-7.5,21.5-2,3-3.3,6.5-3.9,10.1l-4.9,33.9c-4.4,30.3-18.2,58.4-39.3,80.4l-10.6,11c-19.4,20.1-44.1,34.2-71.2,40.7l-25.8,6.1c-28.1,6.7-57.5,4.9-84.6-5.1l-28.2-10.4c-10.2-3.8-19.8-9.2-28.3-16.1l-6.4-5.1c-4.7-3.8-10.2-6.7-16-8.4l-16.7-4.9c-12.8-3.7-22.1-14.7-23.9-27.8-1.5-11.5,3-22.9,11.9-30.2l3.5-2.8c4.9-4,8.2-9.5,9.5-15.7l8.6-42.1c7-34.3,26.1-64.9,53.8-86.3l13.8-10.7ZM191.6,14c-29.6-.3-58.3,9.4-81.7,27.4l-13.8,10.7c-25,19.3-42.3,47-48.6,78l-8.6,42.1c-1.9,9.3-7,17.7-14.3,23.7l-3.5,2.8c-5.2,4.2-7.8,10.9-6.9,17.6,1,7.7,6.5,14.1,13.9,16.3l16.7,4.9c7.6,2.2,14.7,5.9,20.9,10.9l6.4,5.1c7.3,5.9,15.6,10.6,24.4,13.9l28.2,10.4c24.5,9.1,51.1,10.7,76.5,4.7l25.8-6.1c24.5-5.8,46.9-18.6,64.4-36.8l10.6-11c19.1-19.9,31.6-45.3,35.6-72.7l4.9-33.9c.8-5.7,2.9-11.1,6.1-15.8,3.4-5.1,5-9.9,5.2-14.2.1-4.1-1.2-8.3-4.7-12.5l-2.6-3.2c-3.6-4.3-8.5-7.4-13.9-8.9-3.3-.9-6.7-3.1-9.1-4.7-1.6-1.1-3.5-2.5-4.9-3.6-.7-.5-1.3-.9-1.7-1.3l-24.9-18.1c-22.4-16.3-49.3-25.2-77-25.5l-23.2-.2Z"/>
    <path class="cls-8" d="M307.7,171.1c2.9,2.6,3.1,7,.5,9.9-34.6,38.4-67.8,66.3-112,78.5-44.1,12.2-97.9,8.4-173.3-13.9-3.7-1.1-5.8-5-4.7-8.7,1.1-3.7,5-5.8,8.7-4.7,74.3,22,125.2,25,165.6,13.9,40.3-11.1,71.3-36.7,105.3-74.4,2.6-2.9,7-3.1,9.9-.5Z"/>
    <path class="cls-5" d="M321.8,160.3c0,2.3-1.8,4.1-4.1,4.1s-4.1-1.8-4.1-4.1,1.8-4.1,4.1-4.1,4.1,1.8,4.1,4.1Z"/>
    <path class="cls-5" d="M332.6,150.7c0,2.3-1.8,4.1-4.1,4.1s-4.1-1.8-4.1-4.1,1.8-4.1,4.1-4.1,4.1,1.8,4.1,4.1Z"/>
    <path class="cls-5" d="M61.5,166.3c0,2.3-1.8,4.1-4.1,4.1s-4.1-1.8-4.1-4.1,1.8-4.1,4.1-4.1,4.1,1.8,4.1,4.1Z"/>
    <path class="cls-5" d="M73.9,174.5c0,2.3-1.8,4.1-4.1,4.1s-4.1-1.8-4.1-4.1,1.8-4.1,4.1-4.1,4.1,1.8,4.1,4.1Z"/>
    <g class="cls-1">
      <g>
        <path class="cls-3" d="M343.6,84.9c0,44.3-35.6,80.3-79.6,80.3s-79.6-35.9-79.6-80.3S220.1,4.6,264.1,4.6s79.6,35.9,79.6,80.3Z"/>
        <path class="cls-8" d="M264.1,151.2c36.1,0,65.6-29.6,65.6-66.3s-29.5-66.3-65.6-66.3-65.6,29.6-65.6,66.3,29.5,66.3,65.6,66.3ZM264.1,165.1c43.9,0,79.6-35.9,79.6-80.3S308,4.6,264.1,4.6s-79.6,35.9-79.6,80.3,35.6,80.3,79.6,80.3Z"/>
        <path class="cls-7" d="M343.6,84.9c0,29.3-35.6,53-79.6,53s-79.6-23.7-79.6-53,35.6-53,79.6-53,79.6,23.7,79.6,53Z"/>
        <path class="cls-8" d="M314.9,114.3c12.6-8.4,19-19,19-29.4s-6.3-20.9-19-29.4c-12.6-8.4-30.5-13.9-50.8-13.9s-38.3,5.5-50.8,13.9c-12.7,8.4-18.9,19-18.9,29.4s6.3,20.9,18.9,29.4c12.6,8.4,30.5,13.9,50.8,13.9s38.3-5.5,50.8-13.9ZM264.1,137.9c43.9,0,79.6-23.7,79.6-53s-35.6-53-79.6-53-79.6,23.7-79.6,53,35.6,53,79.6,53Z"/>
        <path class="cls-5" d="M304.5,74.4c0,22.4-18.1,40.5-40.5,40.5s-40.5-18.1-40.5-40.5,18.1-40.5,40.5-40.5,40.5,18.1,40.5,40.5Z"/>
        <path class="cls-6" d="M261.3,47.7c.3-2.5,2.6-4.3,5-4,6.4.8,12.9,3,18.2,7.8,5.3,4.8,9,11.9,10.5,21.5.4,2.5-1.3,4.8-3.8,5.2-2.5.4-4.8-1.3-5.2-3.8-1.3-8-4.2-13-7.7-16.2-3.5-3.2-8.1-4.9-13.2-5.5-2.5-.3-4.3-2.6-4-5Z"/>
      </g>
    </g>
    <g class="cls-9">
      <g>
        <path class="cls-3" d="M188,84.9c0,44.3-35.5,80.3-79.2,80.3S29.6,129.2,29.6,84.9,65,4.6,108.8,4.6s79.2,35.9,79.2,80.3Z"/>
        <path class="cls-8" d="M108.8,151.2c35.9,0,65.2-29.5,65.2-66.3S144.6,18.6,108.8,18.6,43.5,48.1,43.5,84.9s29.4,66.3,65.2,66.3ZM108.8,165.1c43.7,0,79.2-35.9,79.2-80.3S152.5,4.6,108.8,4.6,29.6,40.6,29.6,84.9s35.5,80.3,79.2,80.3Z"/>
        <path class="cls-7" d="M188,84.9c0,29.3-35.5,53-79.2,53S29.6,114.2,29.6,84.9,65,31.8,108.8,31.8s79.2,23.7,79.2,53Z"/>
        <path class="cls-8" d="M159.4,114.3c12.6-8.4,18.9-19,18.9-29.4s-6.3-21-18.9-29.4c-12.5-8.4-30.4-13.9-50.6-13.9s-38.1,5.5-50.6,13.9c-12.6,8.4-18.9,19-18.9,29.4s6.3,21,18.9,29.4c12.5,8.4,30.4,13.9,50.6,13.9s38.1-5.5,50.6-13.9ZM108.8,137.9c43.7,0,79.2-23.7,79.2-53s-35.5-53-79.2-53S29.6,55.6,29.6,84.9s35.5,53,79.2,53Z"/>
        <path class="cls-5" d="M148.9,72.7c0,22.5-18,40.8-40.1,40.8s-40.1-18.3-40.1-40.8,18-40.8,40.1-40.8,40.1,18.3,40.1,40.8Z"/>
        <path class="cls-6" d="M106.7,47.7c.3-2.5,2.6-4.3,5-4,6.4.8,12.9,3,18.2,7.8,5.3,4.8,9,11.9,10.5,21.5.4,2.5-1.3,4.8-3.8,5.2-2.5.4-4.8-1.3-5.2-3.8-1.3-8-4.2-13-7.7-16.2-3.5-3.2-8.1-4.9-13.2-5.5-2.5-.3-4.3-2.6-4-5Z"/>
      </g>
    </g>
  </g>
</svg>