<?xml version="1.0" encoding="UTF-8"?>
<svg id="Layer_1" data-name="Layer 1" xmlns="http://www.w3.org/2000/svg" xmlns:xlink="http://www.w3.org/1999/xlink" version="1.1" viewBox="0 0 124.4 30">
  <defs>
    <style>
      .cls-1 {
        clip-path: url(#clippath);
      }

      .cls-2 {
        fill: none;
      }

      .cls-2, .cls-3, .cls-4 {
        stroke-width: 0px;
      }

      .cls-3 {
        fill: url(#linear-gradient);
      }

      .cls-4 {
        fill: #fff;
      }
    </style>
    <clipPath id="clippath">
      <rect class="cls-2" y="0" width="26" height="30"/>
    </clipPath>
    <linearGradient id="linear-gradient" x1="13" y1="44" x2="13" y2="14" gradientTransform="translate(0 44) scale(1 -1)" gradientUnits="userSpaceOnUse">
      <stop offset="0" stop-color="#015eea"/>
      <stop offset="1" stop-color="#41b6ee"/>
    </linearGradient>
  </defs>
  <path class="cls-4" d="M43.2,26l-3.1-3.7h3l2.5,2.9v.8h-2.4ZM34.8,26v-10.8h8.6c.4,0,.8.1,1.1.3.3.2.6.5.8.8.2.3.3.7.3,1.1v2.8c0,.4-.1.8-.3,1.1-.2.3-.5.6-.8.8-.3.2-.7.3-1.1.3h-6.2v3.6h-2.3ZM37.2,20.1h6.1v-2.6h-6.1v2.6ZM49.3,26c-.4,0-.8-.1-1.1-.3-.3-.2-.6-.5-.8-.8-.2-.3-.3-.7-.3-1.1v-3.3h6.5v-.9h-6.5v-2.3h6.6c.4,0,.8.1,1.1.3.3.2.6.5.8.8.2.3.3.7.3,1.1v6.5h-6.6ZM49.5,23.7h4.2v-1.2h-4.2v1.2ZM57.2,26v-11.6h2.3v2.8h4.3c.4,0,.8.1,1.1.3.3.2.6.5.8.8.2.3.3.7.3,1.1v4.4c0,.4,0,.8-.3,1.1-.2.3-.5.6-.8.8-.3.2-.7.3-1.1.3h-6.6ZM59.5,23.7h4.2v-4.1h-4.2v4.1ZM67.2,26v-11.6h2.3v2.8h4.3c.4,0,.8.1,1.1.3.3.2.6.5.8.8.2.3.3.7.3,1.1v4.4c0,.4-.1.8-.3,1.1-.2.3-.4.6-.8.8-.3.2-.7.3-1.1.3h-6.6ZM69.5,23.7h4.2v-4.1h-4.2v4.1ZM77.1,26v-8.7h2.3v8.7h-2.3ZM77.1,16.8v-2.3h2.3v2.3h-2.3ZM83.1,26c-.4,0-.8-.1-1.1-.3-.3-.2-.6-.5-.8-.8-.2-.3-.3-.7-.3-1.1v-9.1h2.3v2.6h3.2v2.3h-3.2v4.1h3.2v2.3h-3.3ZM87.7,26v-10.8h2.3v4.2h6.4v-4.2h2.3v10.8h-2.3v-4.2h-6.4v4.2h-2.3ZM102.6,26c-.4,0-.8-.1-1.1-.3-.3-.2-.6-.5-.8-.8-.2-.3-.3-.7-.3-1.1v-4.4c0-.4,0-.8.3-1.1.2-.3.5-.6.8-.8.3-.2.7-.3,1.1-.3h4.5c.4,0,.8.1,1.1.3.3.2.6.5.8.8.2.3.3.7.3,1.1v4.4c0,.4,0,.8-.3,1.1-.2.3-.4.6-.8.8-.3.2-.7.3-1.1.3h-4.5ZM102.7,23.7h4.2v-4.1h-4.2v4.1ZM112.5,26c-.4,0-.8-.1-1.1-.3-.3-.2-.6-.5-.8-.8s-.3-.7-.3-1.1v-9.4h2.3v9.3h1.8v2.3h-1.9ZM117.7,26c-.4,0-.8-.1-1.1-.3-.3-.2-.6-.5-.8-.8-.2-.3-.3-.7-.3-1.1v-4.4c0-.4,0-.8.3-1.1.2-.3.5-.6.8-.8.3-.2.7-.3,1.1-.3h4.5c.4,0,.8.1,1.1.3.3.2.6.5.8.8.2.3.3.7.3,1.1v3.3h-6.5v.9h6.5v2.3h-6.6ZM117.8,20.8h4.2v-1.2h-4.2v1.2Z"/>
  <g class="cls-1">
    <g>
      <path class="cls-3" d="M25.9,10.7c0-.3-.1-.7-.2-1,0-.3-.2-.6-.3-.8,0-.2-.2-.4-.3-.6,0,0,0-.1,0-.2,0,0,0-.2-.1-.2,0,0,0,0,0,0,0,0,0,0,0-.1,0-.1-.1-.2-.2-.3-.1-.1-.2-.3-.3-.4,0,0,0,0,0,0-.1-.1-.3-.3-.4-.5-.2-.2-.4-.4-.7-.6-.2-.1-.4-.3-.6-.4,0,0,0,0-.1,0-.3-.1-.5-.3-.8-.4-.4-.2-.7-.3-1.1-.3-.3,0-.5,0-.8,0s-.4,0-.6,0c-.2,0-.5.1-.8.3-.2.2-.4.4-.6.5h0c-.2.2-.4.4-.6.6-.2.2-.4.4-.5.6-.1.2-.3.3-.4.5-.1.2-.2.3-.3.4-.2.2-.3.4-.5.7-.1.2-.2.4-.3.5,0,.1-.2.2-.2.4,0,0,0,0,0,.1,0,0,0,0,0,.1,0,.1-.1.2-.2.4,0,.1-.1.3-.2.4,0,0,0,0,0,.1,0,0,0,0,0,.1,0,.1-.1.3-.2.4-.1.3-.2.5-.4.8h0c-.1.3-.2.5-.3.8,0,.1,0,.2-.1.4,0,0,0,0,0,.1,0,.2-.1.3-.2.5-.1.4-.2.7-.3,1.1,0,.3-.1.5-.2.8-.3,0-.5-.1-.7-.2-.4,0-.8-.1-1.1-.1s-.3,0-.5,0c0-.2,0-.4.1-.6.1-.5.3-.9.4-1.3,0,0,0-.2.1-.3,0-.1,0-.2.1-.3,0-.1,0-.2.1-.3,0-.1,0-.2.1-.4,0-.1,0-.2.1-.3,0-.1,0-.2.1-.3,0-.2.2-.5.2-.7,0,0,0,0,0-.1,0-.1,0-.2.1-.4,0-.3.2-.6.2-.8h0c0-.3.1-.6.2-.8,0-.4.2-.8.2-1.2,0-.4,0-.7.1-1.2,0-.6,0-1.2-.1-1.8,0-.3-.1-.6-.2-.9,0-.2-.1-.5-.3-.8,0-.2-.2-.4-.2-.6,0,0,0-.1,0-.2,0,0,0-.2-.2-.3,0,0,0,0,0-.1,0-.1-.2-.3-.3-.5-.2-.2-.3-.3-.5-.5h0c-.2-.2-.3-.3-.5-.4-.1,0-.3-.1-.4-.1,0,0,0,0-.1,0-.2,0-.4-.1-.7-.1s-.2,0-.4,0c-.4,0-.7.2-1,.4-.2.1-.4.3-.6.4-.2.1-.4.3-.5.4-.2.2-.3.3-.4.4-.1.2-.3.3-.4.5-.1.2-.3.4-.4.6-.2.3-.3.5-.4.8-.1.3-.3.6-.4.8,0,.2-.2.4-.2.6,0,.2-.1.4-.2.6,0,0,0,0,0,.1,0,.2-.1.4-.1.6,0,.4-.1.8-.2,1.2,0,.5,0,1,0,1.4,0,.5,0,1.1.1,1.7,0,.6.2,1.2.3,1.9,0,.3.2.7.3,1.1.2.6.3,1,.5,1.4.1.3.2.6.4,1,.1.3.3.6.5.9,0,0,0,0,0,.1,0,0,0,0-.1,0-.3.2-.6.5-.8.8-.1.1-.2.3-.4.4,0,.1-.2.2-.3.3,0,.1-.2.2-.3.4h0c0,0,0,0,0,0,0,0-.1.1-.2.2-2.1,1-3.5,2.4-3.5,4,0,2.8,4.3,5.2,9.7,5.4,0,0,0,0,0,.1,0,.5.4.8.9,1,.2,0,.4,0,.5.1,0,0,0,0,0,0,0,0,.2,0,.3,0s.3,0,.5-.1c0,0,.1,0,.2,0h0c0,0,.2,0,.4,0,.1,0,.3,0,.4,0h0c.5-.1.8-.6.8-1,0,0,0,0,0-.1,0,0,0,0,0,0,4.4-.7,7.7-2.7,7.7-5.2s-1.5-3.1-3.8-4.1c0,0-.1-.2-.2-.3,0,0,0,0,0-.1-.1-.1-.2-.3-.4-.4-.1-.1-.3-.3-.4-.4,0,0,0,0,0,0h0c-.1-.1-.2-.2-.4-.3-.2-.2-.4-.3-.5-.4,0,0,0,0,0,0,0,0,0,0,0,0,.1-.2.3-.4.4-.5,0-.1.2-.2.3-.4,0,0,.2-.2.2-.3h0c0,0,0-.1,0-.1,0-.1.2-.2.3-.3,0,0,.1-.1.2-.2,0,0,0,0,0,0,0,0,0,0,.1-.1,0-.1.2-.2.3-.3,0,0,.1-.1.2-.2,0,0,0,0,0,0,0,0,0,0,0,0,0,0,.1-.1.2-.2,0,0,.2-.1.3-.2,0,0,.1,0,.2-.1,0,0,.2-.1.2-.2.1-.1.3-.2.4-.3,0,0,0,0,0,0,0,0,.2.2.2.2.2.2.5.4.8.6,0,0,0,0,.1,0,0,0,.2.1.3.2,0,0,0,0,0,0,.2,0,.3.2.5.3.3.1.5.2.8.3.2,0,.5.1.8.2.2,0,.5,0,.7,0s.7,0,1,0c.3,0,.5-.2.7-.4.2-.2.2-.3.3-.4,0-.2.1-.4.2-.6,0-.4,0-.7.1-1,0-.7,0-1.4-.1-2.1h0Z"/>
      <path class="cls-4" d="M11.6,26.5s0,0,0,0c-.1.1-.3.3-.4.4-.2.1-.4.2-.6.3,0,0,0,0,0,.1,0,.2,0,.4,0,.5,0,.3,0,.6.1.8,0,.1.1.2.2.2.2,0,.3,0,.5.1.1,0,.2,0,.2-.1,0,0,0,0,0-.1,0-.7,0-1.5,0-2.2,0,0,0,0,0,0Z"/>
      <path class="cls-4" d="M12.9,28.5c0-.5,0-1,0-1.5,0,0,0,0,0,0,0,0-.1,0-.2-.1-.1,0-.2-.2-.3-.2,0,0-.2-.1-.2-.2,0,0,0,0,0,0,0,.8,0,1.7,0,2.5,0,0,0,.1,0,.1,0,0,.2,0,.3,0,.1,0,.3,0,.4,0,0,0,0,0,0-.1,0,0,0-.2,0-.3Z"/>
      <path class="cls-4" d="M25,10.8c0-.3-.1-.6-.2-.9,0-.2-.2-.5-.3-.7-.1-.2-.2-.5-.3-.7,0,0,0-.1-.1-.2,0-.1-.2-.3-.3-.4,0-.1-.2-.3-.3-.4-.1-.2-.3-.3-.4-.5-.2-.2-.4-.4-.7-.5-.1-.1-.3-.2-.4-.3-.3-.1-.6-.3-.9-.4-.3-.1-.6-.2-.9-.3-.4,0-.7,0-1.1,0-.1,0-.3,0-.4.1-.2.1-.4.3-.5.5-.2.2-.4.4-.6.6-.2.2-.3.4-.5.6-.1.2-.3.3-.4.5-.1.1-.2.3-.3.4-.2.2-.3.5-.5.7-.1.2-.2.3-.3.5,0,.2-.2.3-.3.5,0,.2-.2.3-.3.5,0,.2-.2.3-.3.5,0,.2-.2.4-.3.6-.1.3-.2.5-.4.8-.1.2-.2.5-.3.7,0,.1,0,.2-.1.3,0,.2-.1.4-.2.6-.1.4-.2.7-.3,1.1-.2.6-.2,1.2-.3,1.8,0,.2,0,.4,0,.6,0,0,0,0,0,0,0-.1,0-.2,0-.3,0-.1,0-.3-.2-.3-.1,0-.2-.1-.3-.2-.3-.1-.6-.2-1-.3-.7-.1-1.5-.1-2.2,0,0,0,0,0,0,0,0,.2,0,.3-.1.5,0,0,0,0,0,0,0,0,0,0,0,0,0,0,0-.1,0-.2,0-.7.1-1.5.3-2.2.1-.5.3-.9.5-1.4,0,0,0-.2.1-.3,0-.2.2-.4.3-.7,0-.2.2-.4.3-.7,0-.1,0-.2.1-.3,0-.2.2-.5.2-.7,0-.2.1-.3.2-.5,0-.3.2-.5.2-.8,0-.3.1-.5.2-.8,0-.4.2-.8.2-1.2,0-.4,0-.8.1-1.1,0-.5,0-1.1,0-1.6,0-.3,0-.6-.2-.8,0-.2-.1-.5-.2-.7,0-.2-.2-.4-.3-.7,0,0,0-.1,0-.2-.1-.2-.2-.3-.3-.5-.1-.1-.3-.3-.4-.4,0,0-.2-.1-.3-.2-.1,0-.3,0-.4-.1-.2,0-.4,0-.6,0-.2,0-.5.1-.7.2-.2.1-.4.2-.5.3-.1.1-.3.2-.4.4-.1.1-.3.3-.4.4-.1.1-.2.3-.4.4-.1.2-.3.4-.4.5-.1.2-.3.5-.4.7-.1.2-.2.5-.3.7,0,.2-.2.4-.2.5,0,.2-.1.4-.2.5,0,.2-.1.4-.2.6,0,.4-.1.7-.1,1.1,0,.4,0,.9,0,1.3,0,.5,0,1.1.1,1.6,0,.6.2,1.2.3,1.8,0,.3.2.7.3,1,.1.5.3.9.4,1.4.1.3.2.6.4.9.2.4.4.7.6,1.1,0,.1.1.2.2.3.1.2.2.4.4.6,0,0,0,.1.1.2,0,0,0,0,0,0,0,0-.1,0-.2-.1,0,0-.2-.1-.3-.2,0,0,0,0,0,0-.2.1-.4.3-.5.4-.3.2-.5.4-.7.6-.1.1-.2.3-.4.4,0,0-.1.2-.2.3,0,.1-.2.3-.3.4,0,0-.1.2-.2.2,0,.1-.2.3-.3.4,0,.2-.2.3-.3.5,0,.2-.2.4-.3.6,0,.2-.2.4-.2.6,0,.3-.2.5-.3.8,0,.3-.2.5-.2.8-.1.4-.2.8-.2,1.2,0,.3,0,.5,0,.8,0,.1,0,.2.2.3.1,0,.3,0,.4,0,.5,0,1,0,1.5.1.5,0,1.1,0,1.6,0,.6,0,1.2,0,1.8,0,0,0,.1,0,.2,0-.2-.4-.3-.7-.3-1.1,0,0,.1.2.2.3,0,.2.1.3.3.5.1.2.3.3.4.5.1.1.3.2.5.3.2.1.4.2.7.2.3,0,.6,0,.8,0,.3,0,.5-.2.7-.5,0,0,.2-.2.2-.3,0-.2.2-.3.3-.5,0-.1,0-.2.1-.4,0-.1,0-.2.1-.4,0,0,0,0,0,.1,0,.3,0,.5,0,.8s0,.2,0,.3c.1.2.3.4.5.5.2.1.4.2.7.2.3,0,.5,0,.7-.2.1,0,.2-.2.3-.3.1-.2.2-.4.3-.6,0,0,0-.1,0-.2,0,0,0,0,0,0,0,.2,0,.3,0,.5,0,0,0,0,.1,0,.3,0,.5,0,.8.1.6,0,1.2,0,1.8,0,.4,0,.7,0,1.1-.1.2,0,.3,0,.5-.1,0,0,0,0,0-.1,0-.6-.2-1.1-.3-1.7,0-.2-.1-.4-.2-.5,0-.2-.1-.4-.2-.6,0-.1,0-.2-.1-.4,0-.2-.1-.3-.2-.5,0-.1-.1-.3-.2-.4-.1-.2-.2-.5-.4-.7,0-.1-.2-.3-.3-.4,0-.1-.2-.3-.3-.4,0,0-.1-.2-.2-.2-.1-.2-.3-.4-.4-.5-.1-.2-.3-.3-.4-.4-.1,0-.2-.2-.3-.3-.1-.1-.3-.2-.5-.3-.2-.1-.3-.2-.5-.3-.2.1-.3.3-.5.4,0,0,0-.1,0-.1,0-.3.2-.5.3-.8.1-.2.2-.4.3-.5.1-.2.3-.4.4-.6.1-.1.2-.3.3-.4.1-.1.2-.2.3-.4.1-.1.2-.2.3-.4.1-.1.2-.2.3-.3.1-.1.3-.3.4-.4.1-.1.2-.2.3-.3,0,0,.2-.2.3-.3.1-.1.3-.2.4-.4.2-.2.4-.4.6-.5.1,0,.2-.2.4-.3-.1-.2-.2-.4-.3-.6,0-.2-.2-.4-.2-.7-.1-.3-.1-.6-.2-.9,0-.4,0-.9,0-1.3,0-.5,0-1,.2-1.4,0,0,0-.1,0-.2,0-.2.2-.5.2-.7,0,0,0,0,0-.1,0,.2,0,.4,0,.6-.1.4-.1.8-.2,1.3,0,.5,0,1,0,1.4,0,.2,0,.5.1.7,0,.3.2.6.3.9.1.3.3.6.5.8.2.3.4.5.7.8.2.2.4.4.7.5.1,0,.2.1.3.2.2,0,.3.2.5.3.2,0,.5.2.7.3.2,0,.4.1.6.1.5,0,1,0,1.5,0,.2,0,.2-.1.3-.3,0-.1,0-.2.1-.4,0-.3,0-.6.1-1,0-.6,0-1.2-.1-1.8h0ZM7.8,23.9c-1.6,0-2.9-1-2.9-2.6s1.7-2.9,3.1-2.9,2.7,1.1,2.7,2.7-1.2,2.8-2.9,2.8ZM14.9,19.5c1,0,2.3,1,2.3,2.6s-.9,2.1-1.8,2.1-2.5-1.1-2.5-2.4.9-2.3,2-2.3Z"/>
    </g>
  </g>
</svg>