<?xml version="1.0" encoding="utf-8"?>
<!-- Generator: Adobe Illustrator 28.1.0, SVG Export Plug-In . SVG Version: 6.00 Build 0)  -->
<svg version="1.1" id="图层_1" xmlns="http://www.w3.org/2000/svg" xmlns:xlink="http://www.w3.org/1999/xlink" x="0px" y="0px"
	 viewBox="0 0 184.1 43.6" style="enable-background:new 0 0 184.1 43.6;" xml:space="preserve">
<style type="text/css">
	.st0{fill:#FFFFFF;}
	.st1{fill:#4C1A39;}
	.st2{fill:#CC4692;}
	.st3{fill:#FF76BE;}
	.st4{fill:#992367;}
	.st5{fill:#E04465;}
	.st6{fill:#FFA9DA;}
	.st7{fill:#FF48FF;}
	.st8{fill:#31FFBA;}
	.st9{fill:#682E14;}
	.st10{fill:#FFE9E1;}
	.st11{fill:#FF2E2E;}
	.st12{opacity:0.85;}
	.st13{fill:#FFB45A;}
</style>
<g>
	<path class="st0" d="M76.5,21.8c0,5.5-4,10-9,10H54.1v-20h13.4v0C72.5,11.8,76.5,16.3,76.5,21.8z M69,21.8c0-1.8-1.3-3.3-3-3.3
		l-4.5,0v6.6H66C67.7,25.1,69,23.6,69,21.8z"/>
	<path class="st0" d="M85.3,25.1h7.4l-5.9-3.3h5.9v3.3h3.7v6.7H77.9v-20h18.6v6.7H85.3V25.1z"/>
	<path class="st0" d="M116.5,25.1v6.7H97.9v-20h7.5v13.3H116.5z"/>
	<path class="st0" d="M140.3,11.8l0,10c0,5.5-5,10-11.2,10c-6.2,0-11.2-4.5-11.2-10v-10h7.5v10c0,1.8,1.7,3.3,3.7,3.3
		c2.1,0,3.7-1.5,3.7-3.3h0v-10H140.3z"/>
	<path class="st0" d="M160.3,25.1v6.7h-18.6v-20h7.5v13.3H160.3z"/>
	<path class="st0" d="M184.1,11.8l0,10c0,5.5-5,10-11.2,10c-6.2,0-11.2-4.5-11.2-10v-10h7.5v10c0,1.8,1.7,3.3,3.7,3.3
		c2.1,0,3.7-1.5,3.7-3.3h0v-10H184.1z"/>
</g>
<g>
	<g>
		<g>
			<g>
				<path class="st1" d="M42.3,21.1c0.7-0.7,1.9-1.8,3-1.8c0.4,0,0.8,0.3,0.9,0.6c0,0,0,0.1,0,0.1c0.1,0.4,0.2,0.7,0.3,1.1
					c0,0.1,0.1,0.2,0.1,0.2c0,0,0,0,0,0c0,0,0,0-0.1,0c-0.1,0-0.1,0-0.2,0c0,0,0,0,0,0c0.1-0.2,0.2-0.4,0.3-0.6
					c0.1-0.4,0.2-0.8,0.3-1.2c0.2-0.6,0.4-1.3,0.9-1.7c0.2-0.2,0.3-0.3,0.5-0.3c-0.7,0.5-0.9,1.4-1,2.2c-0.1,0.6,0,2.3-0.8,2.5
					c-0.5,0.1-0.8-0.5-1-0.9c-0.1-0.2-0.2-0.5-0.4-0.7c0,0,0-0.1,0-0.1c0,0,0,0,0,0c0,0,0,0,0,0c0,0,0,0,0,0.1c0,0,0.1,0,0.1,0
					c-0.2,0.1-0.3,0.2-0.5,0.4c-0.4,0.4-0.8,0.8-1.1,1.3C43.6,22.2,42.3,21.1,42.3,21.1L42.3,21.1z"/>
			</g>
		</g>
		<g>
			<g>
				<path class="st2" d="M30.1,38.2l-1.2,0.2c0.6,0.2,1.6,0.7,1,1.2c-0.2,0.1-0.3,0.4-0.4,0.7c0.2,0.5,0.4,1,0.5,1.7h1.1
					c0.2-1.2,0.5-2.8,1-3.3C32.9,38,30.1,38.2,30.1,38.2z"/>
			</g>
		</g>
		<g>
			<g>
				<path class="st2" d="M26.4,38.5l1.9-0.3c0.1-0.8-1-0.9-1.2-0.8c-0.2,0.1-1.9,0.8-2.5,1.1c0.6,0.3,1.3,0.7,0.8,1.1
					c0,0-0.1,0.1-0.1,0.1c0.3,0.5,0.6,1.3,0.7,2.3h1.1c0.1-0.6,0.2-1.4,0.4-2.1C27,39,26.4,38.5,26.4,38.5z"/>
			</g>
		</g>
		<g>
			<g>
				<path class="st1" d="M23.7,43.3h0.9c0,0,0-0.6,0-1.3h-0.9C23.8,42.4,23.8,42.8,23.7,43.3z"/>
			</g>
		</g>
		<g>
			<g>
				<path class="st1" d="M28.3,43.3h0.9c0,0,0-0.6,0-1.3h-0.9C28.4,42.4,28.4,42.8,28.3,43.3z"/>
			</g>
		</g>
		<g>
			<g>
				<path class="st1" d="M30,43.3h0.9c0,0,0-0.6,0.2-1.3H30C30.1,42.4,30.1,42.8,30,43.3z"/>
			</g>
		</g>
		<g>
			<g>
				<path class="st1" d="M26,43.3h1.1c0,0,0-0.6,0-1.3H26C26.1,42.4,26.1,42.8,26,43.3z"/>
			</g>
		</g>
		<g>
			<g>
				<path class="st3" d="M44.2,21.6c0-10-8.2-18.1-18.3-18.1S7.6,11.6,7.6,21.6c0,9,6.6,16.4,15.2,17.9c0.4,0.6,0.9,1.4,1,2.4h0.9
					c0.1-0.8,0.2-1.7,0.5-2.2c0.2,0,0.4,0,0.7,0c0.5,0,1.1,0,1.6-0.1c0,0,0.1,0.1,0.1,0.1c0.3,0.6,0.7,1.3,0.8,2.1h0.9
					c0-0.6,0.1-1.2,0.3-1.7c0.1-0.3,0.2-0.5,0.4-0.7c0.1-0.1,0.2-0.2,0.2-0.3C38.2,37.4,44.2,30.2,44.2,21.6z"/>
			</g>
		</g>
		<g>
			<g>
				<g>
					<path class="st4" d="M42.3,18.2c0.6,2.8-0.2,5.4-2,5.9c-0.9,0.2-1.8-0.5-2.3-1.9c0.2,1.8-1.4,2.8-2.3,3
						c-1.7,0.4-3.6-1.5-4.4-4.3c0-0.1,0-0.2-0.1-0.3c0-0.1,0-0.2-0.1-0.3c-1-4.7,3-8.7,2.6-13c0-0.3,0.2-0.4,0.5-0.2
						c2.3,1.5,6.8,6.5,7.9,10.5c0,0.1,0,0.2,0.1,0.3C42.2,18,42.3,18.1,42.3,18.2z"/>
				</g>
			</g>
			<g>
				<g>
					<path d="M42.3,18.2c0.3,1.6,0.3,3.4-0.6,4.8c-0.3,0.5-0.9,1-1.5,1.1c-1.1,0.2-1.9-1-2.2-1.9c0,0,0.2,0,0.2,0
						c0.2,1.3-0.8,2.5-1.9,3C35,25.7,33.6,25,32.8,24c-1.4-1.6-2-3.8-1.9-5.9c0.2-2.9,1.9-5.4,2.6-8.2c0.2-0.8,0.3-1.7,0.2-2.5
						c-0.1-0.4,0.4-0.6,0.7-0.3c1.3,0.9,2.3,2,3.4,3.2C39.7,12.6,41.6,15.2,42.3,18.2L42.3,18.2z M42.3,18.2c-0.7-3-2.6-5.6-4.6-7.9
						c-0.9-1.1-2-2.1-3.1-2.9c0,0-0.3-0.2-0.3-0.2c-0.1-0.1-0.2-0.1-0.3-0.1c-0.2,0-0.3,0.1-0.2,0.3c0.1,0.9,0,1.8-0.2,2.6
						c-0.7,2.8-2.3,5.3-2.5,8.2c-0.1,2,0.5,4.1,1.8,5.7c0.8,0.9,2,1.7,3.2,1.1c1.1-0.5,2.1-1.6,1.9-2.8c0,0,0,0,0,0
						c0.1,0.4,0.3,0.8,0.6,1.1c0.9,1.3,2.2,0.9,3-0.2C42.6,21.6,42.6,19.8,42.3,18.2L42.3,18.2z"/>
				</g>
			</g>
		</g>
		<g>
			<g>
				<path class="st3" d="M28.2,38.5C28.2,38.5,28.2,38.5,28.2,38.5c0.1,0,0.1,0,0.1,0L28.2,38.5z"/>
			</g>
		</g>
		<g>
			<g>
				<g>
					<path class="st0" d="M22.1,27.7c0,0,2.1-4.2-0.8-11.6c-0.2-0.4,0.3-0.8,0.7-0.5c1.6,1.3,4.4,3.8,4.7,6.5c0,0.3,0,0.5-0.1,0.8
						C26,23.9,24.5,26.8,22.1,27.7z"/>
				</g>
				<g>
					<path d="M22.1,27.7c0.7-2,0.7-4.1,0.5-6.2c0-0.2-0.1-0.7-0.1-0.9c-0.1-0.5-0.2-1.2-0.3-1.8c-0.1-0.3-0.2-0.6-0.2-0.9
						c-0.2-0.7-0.4-1.3-0.6-1.9c-0.1-0.3,0.2-0.7,0.5-0.7c0.2,0,0.5,0.3,0.6,0.4c1.8,1.4,3.5,3.1,4.3,5.2c0.2,0.6,0.4,1.3,0.1,1.9
						C25.7,24.9,24.2,27,22.1,27.7L22.1,27.7z M22.1,27.7c2-1,3.3-2.9,4.3-4.9c0.1-0.2,0.1-0.5,0.1-0.8c0-0.2-0.1-0.6-0.2-0.8
						c-0.7-2.1-2.4-3.7-4-5.2c0,0-0.3-0.3-0.3-0.3c-0.1,0-0.1-0.1-0.2-0.1c-0.3,0-0.5,0.2-0.4,0.5c0.5,1.5,1.1,3,1.4,4.5
						c0.4,2.2,0.4,4.6-0.4,6.7c0,0-0.1,0.2-0.1,0.2L22.1,27.7L22.1,27.7C22.1,27.7,22.1,27.7,22.1,27.7L22.1,27.7z"/>
				</g>
			</g>
		</g>
		<g>
			<g>
				<g>
					<g>
						<path class="st5" d="M14.7,31.4c-1.7,0-3.6-0.1-5.6-0.4c-0.8-0.1-1.3-0.8-1.2-1.6c0.1-0.8,0.8-1.3,1.6-1.2
							c6.6,0.9,11.6,0.2,14.6-2.2c1.5-1.2,2.1-2.5,2.4-3.4c0.2-0.6,0.8-1,1.4-1h0c0.9,0.1,1.5,1,1.3,1.9c-0.4,1.3-1.3,3.1-3.3,4.7
							C23.3,30.3,19.5,31.4,14.7,31.4z"/>
					</g>
				</g>
				<g>
					<g>
						<path d="M14.7,31.4c-1.9,0-3.8-0.1-5.6-0.4c-1.5-0.3-1.8-2.3-0.4-2.9C9.1,28,9.6,28,10,28.1c0,0,0.8,0.1,0.8,0.1
							c2.6,0.3,5.4,0.5,8,0c2.6-0.5,5.2-1.6,6.7-3.8c0.3-0.4,0.5-0.9,0.7-1.4c0.1-0.3,0.2-0.5,0.3-0.8c0.7-1.1,2.5-0.9,2.8,0.4
							c0.1,0.3,0.1,0.6,0,0.9c-0.2,0.5-0.4,1-0.6,1.5c-0.5,1-1.2,1.9-1.9,2.6C23.6,30.7,19,31.4,14.7,31.4L14.7,31.4z M14.7,31.4
							c4.2,0,8.7-1,11.8-4c0.8-0.7,1.4-1.6,1.9-2.5c0.2-0.5,0.5-1,0.6-1.4c0.1-0.2,0.1-0.5,0-0.7c-0.3-1.2-2-1.2-2.4,0
							c-0.5,1.4-1.4,2.5-2.5,3.4c-3.3,2.5-8.6,2.8-12.6,2.5c-0.4,0-1.2-0.1-1.6-0.2c-0.2,0-0.6-0.1-0.8-0.1c-1.5,0.2-1.5,2.2,0,2.5
							C11,31.2,12.9,31.4,14.7,31.4L14.7,31.4z"/>
					</g>
				</g>
			</g>
		</g>
		<g>
			<g>
				<g>
					<path class="st6" d="M5.2,7.9c2.6-1.9,6-2.1,8.9-0.8c2.7,1.2,5.8,3.6,6.1,8.4c0.4,6.5-1.1,9.6-1.8,10.7
						c-0.2,0.3-0.5,0.4-0.8,0.4H3.8c-0.4,0-0.8-0.3-0.9-0.7C1.9,23.3-1.2,12.5,5.2,7.9z"/>
				</g>
			</g>
			<g>
				<g>
					<path d="M5.2,7.9C8,5.8,12,5.8,15.1,7.5c2.6,1.4,4.4,3.6,4.9,6.5c0.1,0.5,0.1,1.1,0.2,1.6c0.1,3.3,0,6.7-1.3,9.8
						c-0.7,1.6-0.8,1.4-2.5,1.5c-4,0.1-8.5,0.1-12.5,0.1c-0.2,0-0.4,0-0.6-0.1c-0.3-0.1-0.5-0.4-0.6-0.7c-0.1-0.3-0.2-0.5-0.2-0.8
						c-0.4-1.3-0.7-2.7-1-4.1C0.6,16.7,1,10.9,5.2,7.9L5.2,7.9z M5.2,8c-4.7,3.5-4.1,10.2-2.9,15.3c0.2,0.7,0.3,1.3,0.6,2
						c0.1,0.2,0.1,0.4,0.2,0.6c0.1,0.2,0.2,0.5,0.5,0.6c0.1,0.1,0.3,0.1,0.4,0.1c4,0,8.5,0,12.5,0.1c0,0,1,0,1,0
						c0.3,0,0.6-0.1,0.8-0.4c0.4-0.6,0.7-1.2,0.9-1.9c0.9-2.6,1-5.5,0.9-8.2c0-1-0.2-2.1-0.5-3C18.8,10.8,17.1,9,15,7.8
						C12,6,8.1,5.9,5.2,8L5.2,8z"/>
				</g>
			</g>
		</g>
		<g>
			<g>
				<ellipse cx="12.5" cy="17.9" rx="1.6" ry="6"/>
			</g>
		</g>
		<g>
			<g>
				<ellipse cx="7.3" cy="17.3" rx="1.9" ry="6.7"/>
			</g>
		</g>
		<g>
			<g>
				<g>
					<g>
						<ellipse transform="matrix(0.8041 -0.5945 0.5945 0.8041 2.5162 14.022)" class="st0" cx="22.5" cy="3.2" rx="3.1" ry="2.4"/>
					</g>
				</g>
				<g>
					<g>
						<path d="M24,5.2c-0.9,0.6-2.1,1.1-3.1,0.7c-1.2-0.5-1.5-1.8-1.1-2.9c0.6-1.7,2.7-3.1,4.5-2.4c1.2,0.4,1.6,1.8,1.1,2.9
							C25.1,4.2,24.6,4.7,24,5.2L24,5.2z M24,5.1c1.8-1.3,1.8-4.4-0.8-4.4c-1.7,0-3.6,1.5-3.3,3.3C20.1,5.9,22.6,6.2,24,5.1L24,5.1z
							"/>
					</g>
				</g>
			</g>
			<g>
				<g>
					<ellipse transform="matrix(0.8041 -0.5945 0.5945 0.8041 2.5162 14.022)" cx="22.5" cy="3.2" rx="2" ry="0.4"/>
				</g>
			</g>
		</g>
		<g>
			<g>
				<g>
					<g>
						
							<ellipse transform="matrix(0.8041 -0.5945 0.5945 0.8041 2.5034 17.7981)" class="st0" cx="28.3" cy="5.1" rx="3.1" ry="2.4"/>
					</g>
				</g>
				<g>
					<g>
						<path d="M29.7,7.1c-0.9,0.6-2.1,1.1-3.1,0.7C25.4,7.3,25,6,25.5,4.8c0.6-1.7,2.7-3.1,4.5-2.4c1.2,0.4,1.6,1.8,1.1,2.9
							C30.8,6.1,30.3,6.6,29.7,7.1L29.7,7.1z M29.7,7c1.8-1.3,1.8-4.4-0.8-4.4c-1.7,0-3.6,1.5-3.3,3.3C25.8,7.9,28.4,8.1,29.7,7
							L29.7,7z"/>
					</g>
				</g>
			</g>
			<g>
				<g>
					<ellipse transform="matrix(0.8041 -0.5945 0.5945 0.8041 2.5034 17.7981)" cx="28.3" cy="5.1" rx="2" ry="0.4"/>
				</g>
			</g>
		</g>
		<g>
			<g>
				
					<rect x="18.5" y="1.6" transform="matrix(0.4636 -0.8861 0.8861 0.4636 7.2113 20.5123)" class="st7" width="4.2" height="5.5"/>
			</g>
			<g>
				<path d="M22.1,7.8L16.7,5L19,0.8l5.4,2.8L22.1,7.8z M17.6,4.7L21.9,7l1.6-3.1l-4.3-2.3L17.6,4.7z"/>
			</g>
		</g>
		<g>
			<g>
				
					<rect x="24.7" y="4.8" transform="matrix(0.4636 -0.8861 0.8861 0.4636 7.6657 27.7861)" class="st8" width="4.2" height="5.5"/>
			</g>
			<g>
				<path d="M28.4,11.1L23,8.3L25.2,4l5.4,2.8L28.4,11.1z M23.8,8l4.3,2.3l1.6-3.1l-4.3-2.3L23.8,8z"/>
			</g>
		</g>
		<g>
			<g>
				<path d="M36.5,8.3C36.5,8.3,36.5,8.3,36.5,8.3L30,7.5c-0.1,0-0.2-0.1-0.2-0.3c0-0.1,0.1-0.2,0.3-0.2l6.5,0.8
					c0.1,0,0.2,0.1,0.2,0.3C36.8,8.3,36.7,8.3,36.5,8.3z"/>
			</g>
		</g>
		<g>
			<g>
				<path d="M25.3,4.7c0,0-0.1,0-0.1,0l-1.4-0.7c-0.1-0.1-0.2-0.2-0.1-0.3c0.1-0.1,0.2-0.2,0.3-0.1l1.4,0.7c0.1,0.1,0.2,0.2,0.1,0.3
					C25.5,4.6,25.4,4.7,25.3,4.7z"/>
			</g>
		</g>
		<g>
			<path d="M13.9,30.1c-1.5,0-3-0.1-4.7-0.3c-0.1,0-0.1-0.1-0.1-0.2c0-0.1,0.1-0.1,0.2-0.1c5.1,0.5,12.1,0.5,16-2.8
				c2.2-1.9,2.4-4,2.4-4c0-0.1,0.1-0.1,0.2-0.1c0.1,0,0.1,0.1,0.1,0.2c0,0.1-0.2,2.2-2.5,4.2c-1.4,1.2-3.3,2-5.6,2.6
				C18.1,29.9,16.1,30.1,13.9,30.1z"/>
		</g>
	</g>
	<g>
		<g>
			<path class="st9" d="M13.6,29.8c-0.3-0.6-1-0.9-1.5-0.6l-2,1.2c0.5,0,1.1,0.3,1.4,0.8c0.3,0.6,0.3,1.2,0,1.6l1.8-1.4
				c0,0,0,0,0.1,0c0.1,0,0.1-0.1,0.2-0.2l0,0l0,0C13.9,30.9,13.9,30.3,13.6,29.8z"/>
			<path d="M10.8,33.5l0.6-0.8c0.3-0.4,0.3-1,0-1.5c-0.3-0.5-0.8-0.8-1.2-0.8l-0.6,0l2.6-1.5c0.5-0.3,1.3,0,1.7,0.7v0
				c0.3,0.5,0.3,1.1,0,1.5l0,0l-0.1,0.1c-0.1,0.1-0.1,0.1-0.2,0.2c0,0,0,0-0.1,0L10.8,33.5z M10.6,30.2c0.4,0.1,0.8,0.4,1,0.9
				c0.2,0.4,0.3,0.9,0.2,1.3l1.4-1.1c0,0,0,0,0.1,0c0.1,0,0.1-0.1,0.2-0.1l0,0c0.3-0.3,0.3-0.8,0-1.3l0,0c-0.3-0.5-0.9-0.8-1.3-0.6
				L10.6,30.2z"/>
		</g>
		<g>
			<path class="st10" d="M11.5,31.1c-0.3-0.6-0.9-0.9-1.4-0.8l-0.8,0.5l-4.2,2.4l0,0.6l1.7,2.6l4.2-3.2l0.5-0.4
				C11.8,32.4,11.8,31.7,11.5,31.1z"/>
			<path d="M6.8,36.5L5,33.8l0-0.7l5.1-2.9l0,0c0.6,0,1.2,0.3,1.5,0.9l0,0c0.3,0.6,0.3,1.3,0,1.8l0,0l-0.5,0.4L6.8,36.5z M5.3,33.7
				l1.6,2.4l4.5-3.4c0.3-0.4,0.3-1,0-1.5l0,0c-0.3-0.5-0.7-0.8-1.2-0.8c0,0,0,0,0,0l-4.9,2.8L5.3,33.7z"/>
		</g>
		<g>
			<path class="st11" d="M7.1,34.1c0.5,0.8,0.4,1.8-0.3,2.2c-0.6,0.4-1.5,0-2-0.9c-0.5-0.9-0.3-1.9,0.3-2.2
				C5.8,32.8,6.7,33.2,7.1,34.1z"/>
			<path d="M6.3,36.6c-0.1,0-0.2,0-0.4,0c-0.5-0.1-1-0.5-1.3-1.1c-0.3-0.5-0.4-1.1-0.2-1.7c0.1-0.4,0.3-0.6,0.6-0.8
				c0.7-0.4,1.7,0,2.2,1c0.5,0.9,0.4,2-0.3,2.4C6.8,36.5,6.6,36.6,6.3,36.6z M5.6,33.2c-0.1,0-0.3,0-0.4,0.1
				c-0.2,0.1-0.4,0.3-0.5,0.6c-0.1,0.4,0,1,0.2,1.4c0.3,0.5,0.7,0.8,1.1,0.9c0.3,0.1,0.5,0,0.7-0.1c0.5-0.3,0.6-1.2,0.2-2l0,0
				C6.7,33.6,6.1,33.2,5.6,33.2z"/>
		</g>
		<g>
			<g class="st12">
				<g>
					<path d="M6.5,34C6.5,34,6.5,34,6.5,34c0.1,0,0.1,0,0.2,0.1c0,0,0,0,0,0c0,0,0,0,0,0c0,0,0,0,0,0c0,0,0,0,0.1,0.1c0,0,0,0-0.1,0
						c0,0,0,0.1,0,0.1c0,0,0,0,0,0c0,0,0,0,0,0c0,0,0,0,0,0c0,0,0,0,0,0.1c0,0,0,0,0,0c0,0,0,0,0,0.1c0,0,0,0,0,0c0,0,0,0,0,0
						c0,0,0,0-0.1,0c0,0,0,0,0,0c0,0,0,0,0,0c0,0,0,0,0,0c0,0,0-0.1-0.1-0.1c0,0,0,0,0,0c0,0,0,0,0,0c0,0,0,0.1,0,0.1
						c0,0,0-0.1,0-0.1c0,0,0,0.1,0,0.1c0,0,0-0.1,0-0.1c0,0-0.1,0-0.1-0.1c0,0,0,0,0,0c0,0,0,0,0,0c0,0,0,0,0,0c0,0,0,0,0,0
						c0,0,0,0,0,0c0,0,0,0,0,0c0,0,0,0,0,0c0,0,0,0,0,0C6.4,34.2,6.4,34.2,6.5,34C6.4,34.1,6.5,34,6.5,34z"/>
				</g>
				<g>
					<polygon points="6.6,34 6.6,34 6.6,34 					"/>
				</g>
				<g>
					<path d="M6.1,34.6C6.1,34.6,6.1,34.6,6.1,34.6C6.1,34.6,6.1,34.6,6.1,34.6C6.1,34.6,6.1,34.6,6.1,34.6
						C6.1,34.6,6.1,34.5,6.1,34.6z"/>
				</g>
				<g>
					<polygon points="6.6,34.1 6.6,34.1 6.6,34.1 					"/>
				</g>
				<g>
					<polygon points="6.6,34.1 6.6,34.1 6.6,34.1 					"/>
				</g>
				<g>
					<polygon points="6.6,34.1 6.6,34.1 6.6,34.1 					"/>
				</g>
				<g>
					<polygon points="6.6,34.1 6.6,34.1 6.6,34.1 					"/>
				</g>
				<g>
					<polygon points="6.7,34.1 6.7,34.1 6.7,34.1 					"/>
				</g>
				<g>
					<polygon points="6.6,34.1 6.6,34.1 6.6,34.1 					"/>
				</g>
				<g>
					<path d="M6.2,34.5C6.3,34.5,6.3,34.5,6.2,34.5C6.3,34.5,6.3,34.5,6.2,34.5C6.3,34.5,6.3,34.5,6.2,34.5
						C6.2,34.5,6.2,34.5,6.2,34.5z"/>
				</g>
				<g>
					<path d="M5.5,34.6C5.5,34.6,5.6,34.6,5.5,34.6C5.6,34.6,5.6,34.6,5.5,34.6C5.6,34.6,5.5,34.6,5.5,34.6
						C5.5,34.6,5.5,34.6,5.5,34.6z"/>
				</g>
				<g>
					<polygon points="6.7,34.1 6.7,34.1 6.7,34.1 					"/>
				</g>
				<g>
					<path d="M6.3,34.5C6.3,34.5,6.3,34.5,6.3,34.5C6.3,34.5,6.3,34.5,6.3,34.5L6.3,34.5C6.3,34.5,6.3,34.5,6.3,34.5z"/>
				</g>
				<g>
					<path d="M6.3,34.5L6.3,34.5C6.2,34.5,6.3,34.5,6.3,34.5C6.3,34.5,6.3,34.5,6.3,34.5z"/>
				</g>
				<g>
					<path d="M6.3,34.5C6.3,34.5,6.3,34.5,6.3,34.5C6.3,34.5,6.3,34.5,6.3,34.5z"/>
				</g>
				<g>
					<path d="M5.4,34.2C5.4,34.2,5.4,34.2,5.4,34.2C5.4,34.2,5.4,34.2,5.4,34.2z"/>
				</g>
				<g>
					<path d="M6.5,34.3C6.5,34.3,6.5,34.3,6.5,34.3C6.5,34.3,6.5,34.3,6.5,34.3z"/>
				</g>
				<g>
					<path d="M6.7,34.2C6.7,34.2,6.7,34.2,6.7,34.2C6.7,34.2,6.7,34.2,6.7,34.2z"/>
				</g>
				<g>
					<rect x="6.5" y="34.4" transform="matrix(0.7296 -0.6839 0.6839 0.7296 -21.7496 13.7122)" width="0" height="0"/>
				</g>
				<g>
					<polygon points="6.5,34.4 6.5,34.4 6.5,34.4 					"/>
				</g>
				<g>
					<path d="M5.4,35.6C5.4,35.6,5.4,35.6,5.4,35.6C5.4,35.7,5.4,35.7,5.4,35.6c0,0.1,0,0.2,0.1,0.2c0,0,0,0,0,0c0,0,0,0,0,0
						c0,0,0,0,0,0.1c0-0.1,0-0.1,0-0.2C5.3,35.7,5.3,35.6,5.4,35.6C5.3,35.6,5.4,35.6,5.4,35.6z"/>
				</g>
				<g>
					<path d="M6.6,34.4C6.6,34.4,6.6,34.4,6.6,34.4L6.6,34.4z"/>
				</g>
				<g>
					<path d="M6.5,34.5C6.5,34.5,6.5,34.5,6.5,34.5C6.5,34.5,6.5,34.5,6.5,34.5z"/>
				</g>
				<g>
					<path d="M6.6,34.5C6.6,34.5,6.6,34.5,6.6,34.5C6.6,34.5,6.6,34.5,6.6,34.5z"/>
				</g>
				<g>
					<path d="M6.5,34.5L6.5,34.5L6.5,34.5z"/>
				</g>
				<g>
					<path d="M5.5,35.5c0,0,0.1,0,0.1,0c0,0,0,0,0,0c0,0,0,0,0,0C5.6,35.5,5.6,35.5,5.5,35.5C5.5,35.5,5.5,35.5,5.5,35.5
						C5.5,35.5,5.5,35.5,5.5,35.5z"/>
				</g>
				<g>
					<path d="M6.3,33.5c0,0,0.1,0,0.1,0c0,0,0,0,0,0c0,0,0,0,0,0C6.4,33.6,6.3,33.6,6.3,33.5C6.3,33.6,6.2,33.6,6.3,33.5
						C6.2,33.5,6.3,33.5,6.3,33.5z"/>
				</g>
				<g>
					<path d="M6.5,34.6L6.5,34.6L6.5,34.6z"/>
				</g>
				<g>
					<path d="M6.5,34.6L6.5,34.6C6.5,34.6,6.5,34.6,6.5,34.6z"/>
				</g>
				<g>
					<path d="M6.5,34.6L6.5,34.6C6.5,34.6,6.5,34.6,6.5,34.6C6.5,34.6,6.5,34.6,6.5,34.6z"/>
				</g>
				<g>
					<path d="M6.1,35.2C6.1,35.2,6.1,35.2,6.1,35.2c0,0.1,0,0.1,0,0.1c0,0,0,0,0,0c0,0,0,0,0,0c0,0,0.1,0,0.1,0c0,0,0,0,0,0
						c0,0,0,0,0,0l0,0l0,0c0,0,0,0,0,0c0,0,0,0,0,0c0,0,0,0,0,0c0,0,0,0,0,0c0,0,0,0,0,0c0,0,0,0,0,0c0,0,0,0,0,0c0,0,0,0,0,0
						c0,0,0,0,0,0c-0.1,0,0,0.1-0.1,0.1c0,0-0.1,0-0.1,0c0,0,0,0,0,0c0,0,0,0,0,0c0,0,0,0,0,0c0,0,0-0.1,0-0.2c0,0,0,0,0,0
						c0,0,0,0-0.1,0c0,0,0,0,0,0c0,0,0,0,0,0c0,0,0,0,0.1,0c0,0,0,0,0-0.1c0,0,0,0,0-0.1c0,0,0,0,0,0.1c0,0,0,0,0,0c0,0,0,0,0-0.1
						c0,0,0,0,0,0C5.9,35.2,6,35.2,6.1,35.2C6,35.2,6,35.2,6.1,35.2z"/>
				</g>
				<g>
					<path d="M5.8,35.5C5.8,35.5,5.8,35.5,5.8,35.5C5.8,35.5,5.8,35.5,5.8,35.5z"/>
				</g>
				<g>
					<path d="M5.8,35.8C5.8,35.8,5.8,35.8,5.8,35.8C5.8,35.8,5.8,35.8,5.8,35.8z"/>
				</g>
				<g>
					<path d="M5.4,35.2C5.4,35.2,5.4,35.2,5.4,35.2C5.4,35.1,5.4,35.2,5.4,35.2z"/>
				</g>
				<g>
					<path d="M6.2,33.2C6.2,33.2,6.2,33.2,6.2,33.2C6.2,33.2,6.2,33.2,6.2,33.2z"/>
				</g>
				<g>
					<path d="M6.3,35.2C6.3,35.2,6.3,35.2,6.3,35.2C6.3,35.2,6.3,35.2,6.3,35.2C6.3,35.2,6.2,35.2,6.3,35.2
						C6.2,35.2,6.2,35.2,6.3,35.2C6.3,35.2,6.3,35.2,6.3,35.2z"/>
				</g>
				<g>
					<path d="M6.3,35.2C6.3,35.2,6.3,35.2,6.3,35.2L6.3,35.2L6.3,35.2C6.3,35.2,6.2,35.2,6.3,35.2C6.2,35.2,6.2,35.2,6.3,35.2z"/>
				</g>
				<g>
					<path d="M6.8,34.7C6.8,34.7,6.8,34.7,6.8,34.7c0.1,0.1,0.1,0.1,0.1,0.2c0,0,0,0,0,0l0,0c0,0,0,0,0,0l0,0c0,0,0,0,0,0
						C6.8,34.8,6.9,34.8,6.8,34.7C6.8,34.8,6.9,34.7,6.8,34.7C6.8,34.7,6.9,34.8,6.8,34.7C6.8,34.7,6.8,34.7,6.8,34.7
						C6.8,34.7,6.8,34.7,6.8,34.7C6.8,34.7,6.8,34.7,6.8,34.7C6.8,34.7,6.8,34.7,6.8,34.7C6.8,34.7,6.8,34.7,6.8,34.7
						C6.8,34.7,6.8,34.7,6.8,34.7C6.8,34.7,6.8,34.7,6.8,34.7C6.8,34.7,6.8,34.7,6.8,34.7L6.8,34.7C6.8,34.8,6.8,34.8,6.8,34.7
						L6.8,34.7c0,0.1,0,0.1,0,0.1l0,0c0,0,0,0,0,0.1c0,0,0,0,0,0C6.8,34.8,6.8,34.8,6.8,34.7C6.8,34.7,6.8,34.7,6.8,34.7z"/>
				</g>
				<g>
					<path d="M5.9,33.8C5.9,33.8,6,33.8,5.9,33.8C6,33.9,6,33.9,6,33.9c0,0,0,0,0,0l0,0c0,0,0,0,0,0l0,0c0,0,0,0,0,0
						C6,33.9,6,33.9,5.9,33.8C6,33.9,6,33.8,5.9,33.8C6,33.8,6,33.8,5.9,33.8C6,33.8,5.9,33.8,5.9,33.8C5.9,33.8,5.9,33.8,5.9,33.8
						C5.9,33.8,5.9,33.8,5.9,33.8C5.9,33.8,5.9,33.8,5.9,33.8C5.9,33.8,5.9,33.8,5.9,33.8C5.9,33.8,5.9,33.8,5.9,33.8
						C5.9,33.8,5.9,33.8,5.9,33.8C5.9,33.8,5.9,33.8,5.9,33.8L5.9,33.8C5.9,33.8,5.9,33.9,5.9,33.8L5.9,33.8c0,0.1,0,0.1,0,0.1l0,0
						c0,0,0,0,0,0.1c0,0,0,0,0,0C5.9,33.9,5.9,33.8,5.9,33.8C5.9,33.8,5.9,33.8,5.9,33.8z"/>
				</g>
				<g>
					<rect x="6.3" y="35.2" transform="matrix(0.7249 -0.6889 0.6889 0.7249 -22.5203 13.9977)" width="0" height="0"/>
				</g>
				<g>
					<rect x="5.9" y="36.2" transform="matrix(0.7199 -0.6941 0.6941 0.7199 -23.506 14.2447)" width="0" height="0"/>
				</g>
				<g>
					<path d="M6.8,34.7C6.8,34.7,6.8,34.7,6.8,34.7L6.8,34.7z"/>
				</g>
				<g>
					<path d="M6.8,34.7C6.8,34.7,6.8,34.7,6.8,34.7C6.8,34.7,6.8,34.7,6.8,34.7C6.8,34.7,6.8,34.7,6.8,34.7z"/>
				</g>
				<g>
					<path d="M6.8,34.7L6.8,34.7L6.8,34.7z"/>
				</g>
				<g>
					<path d="M6.8,34.8C6.8,34.8,6.8,34.8,6.8,34.8C6.8,34.8,6.8,34.8,6.8,34.8z"/>
				</g>
				<g>
					<path d="M6.8,34.7C6.8,34.7,6.8,34.7,6.8,34.7C6.8,34.7,6.8,34.7,6.8,34.7z"/>
				</g>
				<g>
					<path d="M6.8,34.7C6.8,34.7,6.8,34.7,6.8,34.7C6.8,34.7,6.8,34.7,6.8,34.7C6.8,34.7,6.8,34.7,6.8,34.7z"/>
				</g>
				<g>
					<rect x="6.8" y="34.7" transform="matrix(0.7243 -0.6895 0.6895 0.7243 -22.0836 14.2742)" width="0" height="0"/>
				</g>
				<g>
					<path d="M6.8,34.8C6.8,34.8,6.8,34.8,6.8,34.8C6.8,34.8,6.8,34.8,6.8,34.8z"/>
				</g>
				<g>
					<path d="M6.8,34.8C6.8,34.8,6.8,34.8,6.8,34.8C6.8,34.8,6.8,34.8,6.8,34.8z"/>
				</g>
				<g>
					<path d="M5.9,33.3C5.9,33.3,5.9,33.3,5.9,33.3C5.9,33.3,5.9,33.3,5.9,33.3z"/>
				</g>
				<g>
					<polygon points="6.8,34.7 6.8,34.7 6.8,34.7 					"/>
				</g>
				<g>
					<polygon points="7,34.6 7,34.6 7,34.6 					"/>
				</g>
				<g>
					<path d="M6.8,34.8C6.8,34.8,6.8,34.8,6.8,34.8C6.8,34.8,6.8,34.8,6.8,34.8z"/>
				</g>
				<g>
					<path d="M6.5,35.1C6.5,35.1,6.5,35.2,6.5,35.1C6.5,35.2,6.5,35.2,6.5,35.1C6.4,35.1,6.4,35.1,6.5,35.1
						C6.5,35.1,6.5,35.1,6.5,35.1z"/>
				</g>
				<g>
					<path d="M6.3,36C6.4,36,6.4,36.1,6.3,36C6.3,36.1,6.3,36.1,6.3,36C6.3,36.1,6.3,36.1,6.3,36C6.3,36,6.3,36,6.3,36z"/>
				</g>
				<g>
					<path d="M6.8,34.8C6.8,34.9,6.8,34.9,6.8,34.8c0,0.1,0,0.1,0,0.1C6.8,34.9,6.8,34.9,6.8,34.8C6.7,34.9,6.7,34.9,6.8,34.8
						C6.7,34.9,6.7,34.9,6.8,34.8C6.7,34.8,6.8,34.8,6.8,34.8z"/>
				</g>
				<g>
					<path d="M6.8,34.8L6.8,34.8L6.8,34.8z"/>
				</g>
				<g>
					<path d="M6.9,34.8L6.9,34.8L6.9,34.8z"/>
				</g>
				<g>
					<path d="M6.7,34.9C6.7,34.9,6.7,34.9,6.7,34.9C6.8,34.9,6.8,34.9,6.7,34.9L6.7,34.9C6.8,34.9,6.8,34.9,6.7,34.9L6.7,34.9
						L6.7,34.9C6.8,34.9,6.8,34.9,6.7,34.9C6.8,34.9,6.8,34.9,6.7,34.9C6.8,34.9,6.8,34.9,6.7,34.9C6.8,34.9,6.8,34.9,6.7,34.9
						L6.7,34.9C6.8,34.9,6.8,34.9,6.7,34.9C6.8,34.9,6.8,34.9,6.7,34.9C6.8,34.9,6.7,34.9,6.7,34.9C6.7,34.9,6.7,34.9,6.7,34.9
						C6.7,34.9,6.7,34.9,6.7,34.9z"/>
				</g>
				<g>
					<path d="M6.7,34.9C6.7,34.9,6.7,34.9,6.7,34.9C6.7,34.9,6.7,34.9,6.7,34.9z"/>
				</g>
				<g>
					<polygon points="6.8,34.8 6.8,34.8 6.8,34.8 					"/>
				</g>
				<g>
					<polygon points="7,34.6 7,34.6 7,34.6 					"/>
				</g>
				<g>
					<path d="M6.8,34.9C6.8,34.9,6.8,34.9,6.8,34.9L6.8,34.9L6.8,34.9C6.8,34.9,6.8,34.9,6.8,34.9z"/>
				</g>
				<g>
					<path d="M6.7,34.9L6.7,34.9L6.7,34.9z"/>
				</g>
				<g>
					<path d="M6.8,34.9C6.8,34.9,6.8,34.9,6.8,34.9L6.8,34.9z"/>
				</g>
				<g>
					<polygon points="6.5,35.2 6.5,35.2 6.5,35.2 					"/>
				</g>
				<g>
					<polygon points="5.8,36.1 5.8,36.1 5.8,36.1 					"/>
				</g>
				<g>
					<path d="M6.8,34.9L6.8,34.9L6.8,34.9z"/>
				</g>
				<g>
					<polygon points="6.7,34.9 6.7,34.9 6.7,34.9 					"/>
				</g>
				<g>
					<polygon points="6.8,34.9 6.8,34.9 6.8,34.9 					"/>
				</g>
				<g>
					<polygon points="6.6,35 6.6,35 6.6,35 					"/>
				</g>
				<g>
					<polygon points="6.8,34.9 6.8,34.9 6.8,34.9 					"/>
				</g>
				<g>
					<polygon points="6.6,35 6.6,35 6.6,35 					"/>
				</g>
				<g>
					<path d="M6.8,34.8L6.8,34.8C6.8,34.8,6.8,34.8,6.8,34.8z"/>
				</g>
				<g>
					<path d="M7.1,34.7L7.1,34.7C7.1,34.7,7.1,34.7,7.1,34.7z"/>
				</g>
				<g>
					<path d="M6.2,35.8C6.2,35.8,6.2,35.8,6.2,35.8c0,0.1,0,0.1,0,0.1c0,0,0,0,0,0C6.1,35.9,6.1,35.9,6.2,35.8
						C6.1,35.8,6.1,35.8,6.2,35.8z"/>
				</g>
				<g>
					<path d="M5.6,33.8C5.6,33.8,5.6,33.8,5.6,33.8c0,0.1,0,0.1,0,0.1c0,0,0,0,0,0C5.5,33.9,5.5,33.9,5.6,33.8
						C5.5,33.8,5.5,33.8,5.6,33.8z"/>
				</g>
				<g>
					<path d="M6.7,35.3C6.7,35.3,6.7,35.3,6.7,35.3C6.7,35.4,6.7,35.4,6.7,35.3C6.7,35.4,6.7,35.4,6.7,35.3
						C6.6,35.4,6.6,35.4,6.7,35.3C6.6,35.3,6.7,35.3,6.7,35.3z"/>
				</g>
			</g>
		</g>
		<g>
			<path class="st13" d="M11.6,31.3c0.1,0,0.1-0.1,0-0.3c0-0.1,0-0.2-0.1-0.3c-0.1-0.1-0.2-0.1-0.3-0.1c-0.1-0.1-0.2-0.1-0.3,0
				c-0.1,0-0.1,0.1,0,0.3c0,0.1,0,0.2,0.1,0.3c0.1,0.1,0.2,0.1,0.3,0.1C11.4,31.3,11.5,31.4,11.6,31.3z"/>
			<path d="M11.5,31.4c-0.1,0-0.1,0-0.2-0.1c-0.1,0-0.2-0.1-0.3-0.2c-0.1-0.1-0.1-0.2-0.1-0.3c0-0.1,0-0.2,0.1-0.3
				c0.1-0.1,0.2,0,0.3,0c0.1,0,0.2,0.1,0.3,0.2c0.1,0.1,0.1,0.2,0.1,0.3c0,0.1,0,0.2-0.1,0.3l0,0C11.6,31.4,11.6,31.4,11.5,31.4z
				 M11.1,30.6C11.1,30.6,11.1,30.6,11.1,30.6C11,30.6,11,30.7,11,30.8l0,0l0,0c0,0.1,0,0.2,0.1,0.3c0.1,0.1,0.1,0.1,0.2,0.1l0,0
				l0,0c0.1,0.1,0.2,0.1,0.2,0c0,0,0.1-0.1,0-0.2l0,0l0,0c0-0.1,0-0.2-0.1-0.3c-0.1-0.1-0.1-0.1-0.2-0.1l0,0
				C11.2,30.6,11.2,30.6,11.1,30.6z"/>
		</g>
	</g>
</g>
</svg>
