<svg width="94" height="93" viewBox="0 0 94 93" fill="none" xmlns="http://www.w3.org/2000/svg">
<path d="M42.4102 2.88696C45.5041 1.10069 49.3162 1.10079 52.4102 2.88696L82.6553 20.3479C85.7493 22.1342 87.6553 25.4364 87.6553 29.009V63.9319C87.6553 67.5044 85.7491 70.8057 82.6553 72.592L52.4102 90.054C49.3162 91.84 45.504 91.8402 42.4102 90.054L12.166 72.592C9.07214 70.8057 7.16604 67.5044 7.16602 63.9319V29.009C7.16602 25.4364 9.07201 22.1342 12.166 20.3479L42.4102 2.88696Z" fill="#B2FF00"/>
<path d="M53.4102 64.4697C57.276 64.4697 60.4099 67.6039 60.4102 71.4697C60.4102 75.3357 57.2761 78.4697 53.4102 78.4697H41.4102C37.5444 78.4695 34.4102 75.3356 34.4102 71.4697C34.4104 67.6041 37.5445 64.47 41.4102 64.4697H53.4102ZM53.0127 69.9414C52.5082 69.9414 52.0735 70.0522 51.709 70.2734C51.3478 70.4947 51.0677 70.7993 50.8691 71.1865C50.6739 71.5705 50.5762 72.0054 50.5762 72.4902C50.5762 72.9751 50.6707 73.4099 50.8594 73.7939C51.0514 74.178 51.3266 74.4808 51.6846 74.7021C52.0426 74.9235 52.474 75.0342 52.9785 75.0342C53.4798 75.0342 53.9111 74.9235 54.2725 74.7021C54.6369 74.4808 54.9154 74.178 55.1074 73.7939C55.2994 73.4099 55.3955 72.9751 55.3955 72.4902C55.3954 72.0054 55.301 71.5705 55.1123 71.1865C54.9268 70.7993 54.6548 70.4947 54.2969 70.2734C53.9421 70.0522 53.5139 69.9414 53.0127 69.9414ZM43.3789 67.9053C43.0567 67.9053 42.7652 67.9151 42.5049 67.9346C42.2445 67.9541 41.9482 67.9639 41.6162 67.9639H40.4639C40.4087 67.9639 40.3662 67.9967 40.3369 68.0615C40.311 68.1264 40.298 68.1771 40.2979 68.2129C40.2979 68.2844 40.3093 68.3317 40.332 68.3545C40.3581 68.374 40.4053 68.387 40.4736 68.3936C40.5745 68.4033 40.6804 68.4196 40.791 68.4424C40.9049 68.4619 41.0027 68.5027 41.084 68.5645C41.1653 68.6262 41.206 68.7275 41.2061 68.8672L41.2012 74.1504C41.2012 74.2577 41.1245 74.3343 40.9717 74.3799C40.822 74.4222 40.6689 74.4499 40.5127 74.4629C40.4054 74.4759 40.3517 74.5364 40.3516 74.6436C40.3516 74.6793 40.3647 74.73 40.3906 74.7949C40.4199 74.86 40.4622 74.8926 40.5176 74.8926H43.3545C43.4097 74.8925 43.4506 74.8599 43.4766 74.7949C43.5057 74.73 43.5205 74.6793 43.5205 74.6436C43.5205 74.569 43.5074 74.5214 43.4814 74.502C43.4586 74.4825 43.4129 74.4694 43.3447 74.4629C43.2211 74.4531 43.0794 74.4385 42.9199 74.4189C42.7604 74.3994 42.6221 74.3587 42.5049 74.2969C42.3877 74.2318 42.3291 74.1292 42.3291 73.9893V72.1826H43.1885C43.7092 72.1826 44.1635 72.0882 44.5508 71.8994C44.938 71.7106 45.2377 71.4501 45.4492 71.1182C45.6639 70.783 45.7715 70.397 45.7715 69.9609C45.7714 69.4533 45.6575 69.0494 45.4297 68.75C45.2019 68.4506 44.9055 68.2357 44.541 68.1055C44.1798 67.972 43.7922 67.9053 43.3789 67.9053ZM49.4404 69.9414C49.2322 69.9415 49.0448 69.9919 48.8789 70.0928C48.7162 70.1937 48.5696 70.3223 48.4395 70.4785C48.3093 70.6315 48.1953 70.7911 48.0977 70.957V70.1953C48.0911 70.1175 48.0715 70.0651 48.0391 70.0391C48.0067 70.0133 47.9771 70 47.9512 70C47.7982 70.0033 47.588 70.013 47.3213 70.0293C47.0544 70.0423 46.745 70.0586 46.3936 70.0781C46.358 70.0815 46.3284 70.1077 46.3057 70.1562C46.2862 70.2049 46.2764 70.2491 46.2764 70.2881C46.2764 70.3496 46.288 70.3938 46.3105 70.4199C46.3332 70.4458 46.3612 70.4672 46.3936 70.4834C46.4813 70.5062 46.5825 70.5257 46.6963 70.542C46.81 70.5582 46.9096 70.6041 46.9941 70.6787C47.0787 70.7535 47.121 70.8922 47.1211 71.0938V74.209C47.1211 74.3132 47.0592 74.3864 46.9355 74.4287C46.8152 74.471 46.6881 74.4987 46.5547 74.5117C46.4476 74.5248 46.3937 74.5854 46.3936 74.6924C46.3936 74.7281 46.4068 74.7707 46.4326 74.8193C46.4618 74.8681 46.5044 74.8925 46.5596 74.8926H49.0059C49.0612 74.8926 49.1019 74.8682 49.1279 74.8193C49.1572 74.7706 49.1719 74.7281 49.1719 74.6924C49.1718 74.6178 49.1588 74.5703 49.1328 74.5508C49.1099 74.5315 49.064 74.5182 48.9961 74.5117C48.8823 74.502 48.7583 74.4873 48.625 74.4678C48.4917 74.4482 48.3775 74.4075 48.2832 74.3457C48.1924 74.2838 48.1465 74.1843 48.1465 74.0479V71.4941C48.2083 71.3445 48.2881 71.2044 48.3857 71.0742C48.4834 70.9408 48.5892 70.8333 48.7031 70.752C48.8169 70.6707 48.9279 70.63 49.0352 70.6299L49.5479 71.2842C49.6194 71.2842 49.7058 71.2597 49.8066 71.2109C49.9108 71.1621 50.0003 71.0921 50.0752 71.001C50.1533 70.9098 50.1924 70.7991 50.1924 70.6689C50.1923 70.5487 50.1712 70.4328 50.1289 70.3223C50.0898 70.2118 50.0164 70.1203 49.9092 70.0488C49.805 69.9774 49.6485 69.9414 49.4404 69.9414ZM52.9736 70.4102C53.452 70.4102 53.7776 70.5943 53.9502 70.9619C54.1259 71.3264 54.2138 71.8362 54.2139 72.4902C54.2139 73.1443 54.1291 73.6556 53.96 74.0234C53.7939 74.388 53.4717 74.5703 52.9932 74.5703C52.5114 74.5703 52.1826 74.388 52.0068 74.0234C51.8344 73.6556 51.748 73.1443 51.748 72.4902C51.7481 71.8394 51.8311 71.3297 51.9971 70.9619C52.1664 70.5943 52.492 70.4102 52.9736 70.4102ZM42.9785 68.3496C43.2486 68.3496 43.501 68.3985 43.7354 68.4961C43.9696 68.5937 44.1602 68.768 44.3066 69.0186C44.4531 69.2659 44.5263 69.6145 44.5264 70.0635C44.5264 70.3888 44.4741 70.6609 44.3701 70.8789C44.266 71.0968 44.1356 71.2712 43.9795 71.4014C43.8234 71.5282 43.6653 71.6195 43.5059 71.6748C43.3497 71.7269 43.2177 71.7529 43.1104 71.7529H42.3291L42.334 68.3496H42.9785ZM66.8164 34.2451C69.0024 34.2451 70.7771 34.5597 72.1396 35.1885C73.5171 35.8173 74.5729 36.701 75.3066 37.8389C76.0403 38.9768 76.5345 40.3397 76.7891 41.9268C76.8789 42.4657 76.9388 43.0649 76.9688 43.7236C76.9987 44.3674 77.0137 45.004 77.0137 45.6328L61.8076 45.6553C61.8076 47.976 62.1521 49.8106 62.8408 51.1582C63.5295 52.4907 64.3833 53.4417 65.4014 54.0107C66.4344 54.5797 67.4679 54.8642 68.501 54.8643C69.7886 54.8643 70.9044 54.662 71.8477 54.2578C72.791 53.8535 73.5846 53.2171 74.2285 52.3486C74.2884 52.2738 74.3558 52.1914 74.4307 52.1016C74.5055 52.0118 74.6181 51.9819 74.7676 52.0117L75.8008 52.4834C75.9504 52.5433 76.0253 52.6333 76.0254 52.7529C76.0254 52.8128 76.0104 52.8802 75.9805 52.9551C75.9655 53.015 75.9355 53.0749 75.8906 53.1348C75.1569 54.4674 74.0713 55.5605 72.6338 56.4141C71.1963 57.2525 69.3619 57.6719 67.1309 57.6719C62.9983 57.6718 59.9433 56.6236 57.9668 54.5273C56.0054 52.431 55.0244 49.5109 55.0244 45.7676C55.0244 43.2671 55.571 41.163 56.6641 39.4561C57.7571 37.7341 59.2023 36.4388 60.999 35.5703C62.7958 34.6869 64.7352 34.2452 66.8164 34.2451ZM34.2256 25.1484C37.2801 25.1634 39.9158 25.5978 42.1318 26.4512C44.3628 27.3046 46.1973 28.4578 47.6348 29.9102C49.0722 31.3625 50.1354 33.0024 50.8242 34.8291C51.528 36.6409 51.8799 38.5128 51.8799 40.4443C51.8799 42.7802 51.5355 44.8542 50.8467 46.666C50.1729 48.4779 49.2669 50.0352 48.1289 51.3379C46.9909 52.6406 45.7106 53.7113 44.2881 54.5498C42.8806 55.3883 41.4355 56.0098 39.9531 56.4141C38.4708 56.8183 37.0556 57.0205 35.708 57.0205H19.4912C19.2369 57.0203 19.0419 56.8706 18.9072 56.5713C18.7875 56.272 18.7275 56.0396 18.7275 55.875C18.7276 55.3812 18.975 55.1039 19.4688 55.0439C20.1874 54.9841 20.9064 54.8567 21.625 54.6621C22.3587 54.4525 22.7256 54.1006 22.7256 53.6064V29.3037C22.7255 28.66 22.5309 28.1956 22.1416 27.9111C21.7673 27.6268 21.3178 27.4394 20.7939 27.3496C20.27 27.2448 19.7756 27.1699 19.3115 27.125C18.9973 27.095 18.7799 27.0351 18.6602 26.9453C18.5556 26.8404 18.5029 26.623 18.5029 26.2939C18.503 26.1292 18.5629 25.897 18.6826 25.5977C18.8173 25.2984 19.0123 25.1486 19.2666 25.1484H34.2256ZM29.4414 53.2471C29.4414 53.4566 29.5614 53.6814 29.8008 53.9209C30.0403 54.1455 30.4899 54.3402 31.1484 54.5049C31.8222 54.6696 32.8108 54.7519 34.1133 54.752C35.4758 54.752 36.7638 54.6096 37.9766 54.3252C39.1894 54.0257 40.2526 53.4117 41.166 52.4834C42.0794 51.54 42.7982 50.1175 43.3223 48.2158C43.8463 46.3141 44.1084 43.7535 44.1084 40.5342C44.1084 37.7491 43.8239 35.4954 43.2549 33.7734C42.6859 32.0366 41.9221 30.7037 40.9639 29.7754C40.0056 28.8322 38.9123 28.1881 37.6846 27.8438C36.4569 27.4994 35.1912 27.3271 33.8887 27.3271H29.4639L29.4414 53.2471ZM66.749 36.2217C65.9256 36.2218 65.1617 36.4464 64.458 36.8955C63.7693 37.3447 63.1927 38.1085 62.7285 39.1865C62.2793 40.2496 61.9948 41.7247 61.875 43.6113L70.2979 43.5664C70.2978 40.9611 69.9909 39.0892 69.377 37.9512C68.778 36.7984 67.9019 36.2217 66.749 36.2217Z" fill="black"/>
</svg>
