<?xml version="1.0" encoding="UTF-8"?>
<svg id="Layer_2" data-name="Layer 2" xmlns="http://www.w3.org/2000/svg" version="1.1" viewBox="0 0 193.9 55.1">
  <defs>
    <style>
      .cls-1, .cls-2 {
        fill: #333;
        stroke-width: 0px;
      }

      .cls-2 {
        fill-rule: evenodd;
      }
    </style>
  </defs>
  <path class="cls-2" d="M72.1,55.1h-10L82,0h9.9l19.9,55.1h-10.2l-4.5-12.7-2.8-8.1-6.3-17.8h0c-.4-1.5-1-3.1-1.1-4.2-.2,1.1-.7,2.7-1.2,4.2l-6.3,17.8-2.9,8.1-4.4,12.7Z"/>
  <path class="cls-1" d="M86.9,30.5l6.3,17.8h-12.5l6.3-17.8Z"/>
  <path class="cls-2" d="M121.8,0h10s-16.8,46.6-16.8,46.6l-4.8-13.6,4.3-12.1,2.9-8.1L121.8,0ZM103.7,32.5l-4.1-11.7-2.8-8.1L92.3,0h-10.2s19.9,55.1,19.9,55.1h6.9l-5.8-21.8.6-.8Z"/>
</svg>