<?xml version="1.0" encoding="UTF-8"?>
<svg id="Layer_2" data-name="Layer 2" xmlns="http://www.w3.org/2000/svg" version="1.1" viewBox="0 0 193.9 55.1">
  <defs>
    <style>
      .cls-1 {
        fill: #333;
        stroke-width: 0px;
      }
    </style>
  </defs>
  <path class="cls-1" d="M50.3,19h-8.5l9.7,9.7-9.8,9.7-2.7,2.6h8.8l11.2-11.3c.6-.6.6-1.5,0-2.1l-8.8-8.7Z"/>
  <path class="cls-1" d="M162.3,20.9v-6.8h-5.7v6.8h-3.5v4.8h3.5v7.9c0,4.4.9,7.6,6.2,7.5h3.4v-4.6h-1.7c-2.4,0-2.3-1.4-2.3-4v-6.8s4.1,0,4.1,0h0v-4.8h-4.1Z"/>
  <polygon class="cls-1" points="41.7 19 41.8 19 41.8 18.9 41.7 19"/>
  <path class="cls-1" d="M125.4,23.2h0c-.6-.8-1.4-1.4-2.4-1.9-1.1-.5-2.3-.8-3.7-.8s-3.2.4-4.5,1.3c-1.3.8-2.3,2-3.1,3.5-.7,1.5-1.1,3.2-1.1,5.2s.4,3.6,1.2,5.1c.8,1.5,1.9,2.7,3.2,3.5,1.3.9,2.9,1.3,4.6,1.3s2.4-.3,3.4-.8c.8-.4,1.5-1,2-1.7v2.2c0,1.4-.4,2.4-1.1,3.1-.7.7-1.8,1-3.2,1s-2.2-.3-2.8-.8c-.5-.4-1-1-1.1-2.3h-5.5c0,1.7.6,2.9,1.3,3.9.8,1.1,1.9,2,3.4,2.7,1.4.6,3.1.9,4.9.9,3.1,0,5.5-.8,7.2-2.3,1.8-1.5,2.6-3.7,2.6-6.3v-19h-5.3v2.3ZM124.4,33.1h0c-.3.7-.9,1.3-1.5,1.7-.6.4-1.4.6-2.3.6-1.3,0-2.3-.4-3.1-1.3-.8-.9-1.2-2.1-1.2-3.7s.4-2.8,1.2-3.7c.8-.9,1.8-1.3,3.1-1.3s2.4.5,3.2,1.4c.8.9,1.2,2.2,1.2,3.7s-.2,1.9-.5,2.6Z"/>
  <path class="cls-1" d="M150.5,23.9h0c-.9-1.1-2.1-1.9-3.4-2.5-1.3-.6-2.8-.9-4.4-.9s-3.8.5-5.3,1.3c-1.5.9-2.8,2.1-3.7,3.7-.9,1.6-1.3,3.3-1.3,5.3s.4,3.9,1.3,5.5c.8,1.6,2.1,2.8,3.6,3.7,1.6.9,3.4,1.3,5.5,1.3s4.7-.6,6.4-1.9c1.6-1.2,2.8-2.9,3.4-5h-5.8c-.3.7-.7,1.3-1.3,1.8-.7.5-1.7.8-2.8.8s-1.8-.2-2.5-.7c-.7-.5-1.2-1.2-1.5-2-.2-.6-.4-1.2-.4-1.8h14.4v-.2c.3-1.6.2-3.2-.2-4.6-.4-1.4-1-2.7-1.9-3.8ZM138.3,28.7c0-.4.2-.8.4-1.2.4-.9.9-1.6,1.5-2.1.6-.5,1.5-.7,2.4-.7s2.1.4,2.9,1.1c.7.7,1.1,1.7,1.2,2.9h-8.3Z"/>
  <path class="cls-1" d="M105.1,14.1h-5.7v6.8h-3.5v4.8h3.5v7.9c0,4.4.9,7.6,6.2,7.5h3.4v-4.6h-1.7c-2.4,0-2.3-1.4-2.3-4v-6.8s4.1,0,4.1,0h0v-4.8h-4.1v-6.8Z"/>
  <path class="cls-1" d="M81.9,26.9c1-.6,1.9-1.3,2.5-2.2.7-1,1.1-2.2,1-3.4,0-2.3-.9-4.1-2.6-5.4-1.7-1.2-4-1.9-6.9-1.9h-10.5v26.9h10.9c3.1,0,5.5-.7,7.3-2.1,1.8-1.4,2.7-3.4,2.7-5.9s-.4-2.8-1.3-3.9c-.8-.9-1.8-1.7-3.2-2.2ZM71.2,19h4.4c1.4,0,2.4.3,3.1.8.7.5,1,1.2,1,2.1s-.3,1.6-1,2.1c-.7.5-1.7.8-3.1.8h-4.4v-5.7ZM79.4,35.3c-.8.6-1.9.9-3.4.9h-4.8v-6.6h4.8c1.5,0,2.7.3,3.4.9.8.6,1.1,1.3,1.1,2.3s-.4,1.9-1.1,2.5Z"/>
  <rect class="cls-1" x="88.2" y="14.1" width="6" height="4.9"/>
  <rect class="cls-1" x="88.3" y="20.9" width="5.7" height="20.1"/>
  <path class="cls-1" d="M35.5,18.9l9.8-9.7,2.7-2.6h-8.8l-11.2,11.3h0c-.6.6-.6,1.5,0,2.1l8.8,8.7h8.5l-9.7-9.7Z"/>
</svg>