<?xml version="1.0" encoding="UTF-8"?>
<svg id="Layer_3" data-name="Layer 3" xmlns="http://www.w3.org/2000/svg" version="1.1" viewBox="0 0 193.9 55.1">
  <defs>
    <style>
      .cls-1, .cls-2 {
        fill: #333;
        stroke-width: 0px;
      }

      .cls-2 {
        fill-rule: evenodd;
      }
    </style>
  </defs>
  <path class="cls-1" d="M72.9,52.5h-13V2.7h13v5.7h-6.7v38.4h6.7v5.7Z"/>
  <path class="cls-2" d="M117.8,27.5c-2,2.2-2.5,8.5-2.5,8.5h-34.6c0,.1-1.1-6.5-3.2-8.7l2.2-2.3-6.2-10.9,4.7-2,.5,4.3,3.5-2.2,1.7,4.6-3.1.6c5.4,5.2,11.8,5.3,14.5-2.7l-3.5.6v-4.6l3.5.7-1-3.5h6.4c0,0-1,3.4-1,3.4l3.9-.9v5.1c0,0-4-.7-4-.7,2.5,8.2,8.3,8.4,14.5,2.6l-3.2-.6,1.7-4.6,3.6,2.3-.2-4.9,4.8,2.2-5.3,11.8,2.2,2ZM115.9,39c1.9,2.7.9,6-3.7,6-6.7,0-22.8-.3-29.2-.3s-4.8-4.6-2.5-6.3l35.5.5Z"/>
  <path class="cls-1" d="M121,46.8h6.7V8.3h-6.7V2.7h13v49.8h-13v-5.7Z"/>
</svg>