<?xml version="1.0" encoding="UTF-8"?>
<svg id="Layer_2" data-name="Layer 2" xmlns="http://www.w3.org/2000/svg" version="1.1" viewBox="0 0 193.9 55.1">
  <defs>
    <style>
      .cls-1 {
        fill: #333;
        stroke-width: 0px;
      }
    </style>
  </defs>
  <path class="cls-1" d="M102,45v9.6c0,0,6-3.2,6-3.2v-3.2l-6-3.2Z"/>
  <path class="cls-1" d="M99.9,43.9l-3.4-1.8-10.2,5.6,13.6,7.2.4.2v-11.1c0,0-.4-.2-.4-.2Z"/>
  <path class="cls-1" d="M83.4,20.6v-10.7l-13,6.9,10.3,5.3,2.7-1.5Z"/>
  <path class="cls-1" d="M109.7,20.7l9.7,5.2v-14.2l-9.7,5.3v3.7Z"/>
  <path class="cls-1" d="M118.2,10.3l-6-3.2-2.4,1.4v6.7l8.6-4.7h-.2Z"/>
  <path class="cls-1" d="M108.9,39.7l-11.4-6.1v7.2l.3.2,1.5.8.9.5.9.5.7.4h.2c0,0,1.4.8,1.4.8l4.7,2.6.9.5h0l.8-.5,14.8-7.8v-7.2l-15.6,8.2Z"/>
  <path class="cls-1" d="M104,29.1l-1.5.8h-.2c0,0-.4.3-.4.3v-.2h-.2c0,0-.9.5-.9.5l-1-.5h-.2c0,0-.4-.2-.4-.2h-.2l-1.6-.8h0v2.6l11.4,6.2,13.1-6.9,1.4-.8h.2c0,0-1.5-.9-1.5-.9l-.9-.5-.9-.5-.9-.5-9.6-5.2v3.4l-.8.5-.9.5-.9.5-3.2,1.8Z"/>
  <path class="cls-1" d="M88.4,17.9l7.7,4.1v.2c0,0,.2,0,.2,0l1.2.6v3.5h0c0,0,0,.8,0,.8h0l.9.5,1.4.7v-15.6l-14.7-7.8v14.8l.7-.4,2.5-1.4Z"/>
  <path class="cls-1" d="M101.6,24.1v4.4h.2c0,0,5.3-3,5.3-3l.9-.5V8.4l-.8-.5-14.8-7.9-6.3,3.5,15.5,8.3v12.4Z"/>
  <path class="cls-1" d="M78.8,23l-9.4-4.9h0v7.1l2.8,1.4,6.6-3.5h0Z"/>
  <path class="cls-1" d="M90.4,25.5l.9-.5.9-.5,2.4-1.4-6.3-3.4-2.5,1.4h-.2c0,0-.7.5-.7.5h-.2c0,0-.6.5-.6.5h-.2c0,0-1.6,1-1.6,1l-.5.3-.4.2-.5.3-.4.2-.5.2-6.1,3.3-.9.5h0v16.8l6.2,3.4v-16c0,0,0-.5,0-.5l.3-.2,1.3-.7.9-.5,8.9-4.8Z"/>
  <path class="cls-1" d="M94.7,41.1l.5-.2.3-.2h.2v-12.5h0v-.9h0v-2.8l-1.7,1-.9.5-.9.5-10.8,5.9-.7.5v15.9c0,0,.3-.2.3-.2l2.3-1.2.9-.5.9-.5,8.5-4.6,1-.6Z"/>
</svg>