<?xml version="1.0" encoding="UTF-8"?>
<svg id="Layer_3" data-name="Layer 3" xmlns="http://www.w3.org/2000/svg" version="1.1" viewBox="0 0 193.9 55.1">
  <defs>
    <style>
      .cls-1 {
        fill: #333;
        stroke-width: 0px;
      }
    </style>
  </defs>
  <path class="cls-1" d="M86.5,44.5c-3.1,0-5.7-.7-7.9-2.1-2.2-1.4-3.9-3.2-5.1-5.6s-1.8-4.9-1.8-7.8.6-5.4,1.8-7.8c1.2-2.3,2.9-4.2,5.2-5.6,2.2-1.4,4.9-2.1,7.9-2.1s6.1.8,8.4,2.4c2.4,1.6,4.1,3.7,5.3,6.2h-3.7c-.9-1.6-2.2-2.9-3.8-3.8-1.6-.9-3.6-1.4-5.9-1.4s-4.5.5-6.3,1.6c-1.8,1.1-3.1,2.5-4,4.3-.9,1.8-1.4,3.9-1.4,6.1s.5,4.3,1.4,6.1,2.2,3.3,4,4.4c1.8,1.1,3.8,1.6,6.3,1.6s3.5-.4,5.2-1.2c1.6-.8,2.9-1.9,4-3.4,1-1.5,1.5-3.3,1.5-5.4h-11v-3.1h14.2v16h-3.1v-5.3c-.6,1-1.5,1.9-2.5,2.8-1,.9-2.2,1.6-3.6,2.1-1.4.5-3,.8-4.9.8h0ZM115.3,44.5c-2.2,0-4.1-.5-5.8-1.6-1.7-1.1-2.9-2.5-3.8-4.3-.9-1.8-1.4-3.8-1.4-5.9s.5-4.2,1.4-5.9,2.2-3.2,3.8-4.2,3.6-1.6,5.8-1.6,3.5.4,4.9,1.1c1.4.7,2.4,1.7,3.3,3v-3.7h3.4v22.8h-3.4v-3.6c-.9,1.2-1.9,2.2-3.3,2.9s-3,1.1-4.9,1.1h0ZM115.7,41.5c1.7,0,3.1-.4,4.3-1.2s2.1-1.8,2.7-3.2c.6-1.3.9-2.8.9-4.3s-.3-3-.9-4.3c-.6-1.3-1.5-2.4-2.7-3.1-1.2-.8-2.6-1.2-4.3-1.2s-3.1.4-4.3,1.2-2.1,1.8-2.8,3.1c-.6,1.3-1,2.8-1,4.3s.3,3,1,4.3c.6,1.3,1.6,2.4,2.8,3.2,1.2.8,2.7,1.2,4.3,1.2ZM131.8,44.2V12.3h3.4v31.9h-3.4ZM137.5,44.2l8.8-11.8-8.2-11h4.4l5.9,8.6,5.8-8.6h4.4l-8.2,11,8.8,11.8h-4.4l-6.4-9.3-6.5,9.3h-4.3,0ZM170.4,44.5c-2.3,0-4.3-.5-6.1-1.6s-3.1-2.5-4-4.3c-1-1.8-1.4-3.8-1.4-5.9s.5-4.2,1.4-5.9,2.2-3.2,3.9-4.2c1.7-1.1,3.7-1.6,6-1.6s4.3.5,6,1.6c1.7,1.1,3,2.5,3.9,4.2s1.4,3.8,1.4,5.9v1.4h-19.1c.2,1.3.6,2.6,1.3,3.7.7,1.1,1.6,2,2.8,2.6,1.2.7,2.5,1,4,1s3-.4,4.1-1.1c1.1-.7,1.9-1.6,2.6-2.8h3.7c-.8,2-2,3.7-3.8,5-1.7,1.3-3.9,1.9-6.6,1.9h0ZM162.5,31h15.5c-.3-1.9-1.1-3.6-2.5-4.9s-3.1-2-5.3-2-3.9.7-5.3,2c-1.3,1.3-2.1,2.9-2.5,4.9h0ZM48.2,16.2L15.8,34.9l30.1-22.2c1-.8,2.4-.4,3.1.6.6,1,.2,2.3-.8,2.9h0ZM52.8,32.4c-.4-.8-1.4-1-2.1-.6l-21.4,12.4,22.8-9.6c.9-.4,1.2-1.4.8-2.2h0ZM63.6,15.8c-.9-1.6-2.9-2.1-4.5-1.1L12.4,45.4l50-25.2c1.6-.8,2.2-2.8,1.3-4.4h0Z"/>
</svg>