<?xml version="1.0" encoding="UTF-8"?>
<svg id="Layer_2" data-name="Layer 2" xmlns="http://www.w3.org/2000/svg" version="1.1" viewBox="0 0 193.9 55.1">
  <defs>
    <style>
      .cls-1, .cls-2 {
        fill: #333;
        stroke-width: 0px;
      }

      .cls-2 {
        fill-rule: evenodd;
      }
    </style>
  </defs>
  <path class="cls-2" d="M100.6,22c-1.6-1.2-3.5-1.8-5.6-1.8-5.2,0-9.5,4.3-9.5,9.5s4.3,9.5,9.5,9.5,4-.7,5.6-1.8v1.3h3.9v-18h-3.9v1.3ZM94.9,35.3c-3.1,0-5.6-2.5-5.6-5.6s2.5-5.6,5.6-5.6,5.6,2.5,5.6,5.6-2.5,5.6-5.6,5.6Z"/>
  <path class="cls-2" d="M112.8,16.5h-3.9v4.2h-2.3v3.7h2.3v9.6c0,1,.1,1.8.4,2.5.2.6.6,1.2,1.1,1.6.4.4,1,.7,1.6.9.6.2,1.3.2,2.1.2s1.4,0,2-.2c.5-.1,1.1-.4,1.5-.6v-3c-.8.3-1.5.5-2.3.5-.9,0-1.4-.2-1.8-.6-.4-.4-.7-1-.7-1.9v-9h4.8v-3.7h-4.8v-4.2Z"/>
  <path class="cls-2" d="M161.2,20.1c-5.2,0-9.5,4.3-9.5,9.5s4.3,9.5,9.5,9.5,9.5-4.3,9.5-9.5-4.3-9.5-9.5-9.5ZM161.2,35.3c-3.1,0-5.6-2.5-5.6-5.6s2.5-5.6,5.6-5.6,5.6,2.5,5.6,5.6-2.5,5.6-5.6,5.6Z"/>
  <path class="cls-2" d="M73.6,26.2v4.3h5.9c-.3,1.2-.9,2.3-1.8,3.2-1.3,1.3-3.1,2.1-5.1,2.1-4.1,0-7.5-3.4-7.5-7.5s3.4-7.5,7.5-7.5,4.2.9,5.6,2.6l3.4-2.7c-2.2-2.6-5.5-4.2-9-4.2-6.5,0-11.8,5.3-11.8,11.8s5.3,11.8,11.8,11.8,6.1-1.1,8.2-3.3c1.8-1.8,3-4.4,3.2-6.9.1-1.2.1-2.5,0-3.7h-10.4Z"/>
  <rect class="cls-1" x="145.3" y="16.5" width="4.2" height="4.2"/>
  <path class="cls-2" d="M128.3,20.1c-5.2,0-9.5,4.3-9.5,9.5s4.3,9.5,9.5,9.5,6.7-2,8.3-5l-3.5-1.7c-1,1.7-2.8,2.8-4.8,2.8s-4.8-1.8-5.4-4.2h10.9s0,0,0,0h4c0-.5.1-1,.1-1.4,0-5.3-4.3-9.5-9.5-9.5ZM123,27.7c.8-2.1,2.8-3.6,5.3-3.6s4.5,1.5,5.3,3.6h-10.5Z"/>
  <rect class="cls-1" x="145.3" y="22.5" width="4.2" height="16.1"/>
  <rect class="cls-1" x="138.9" y="34.5" width="4.2" height="4.2"/>
  <path class="cls-2" d="M40.1,36.8c-5.1,0-9.3-4.2-9.3-9.3s4.2-9.3,9.3-9.3v-7.6c-9.3,0-16.9,7.6-16.9,16.9s7.6,16.9,16.9,16.9,16.9-7.6,16.9-16.9h-7.6c0,5.1-4.2,9.3-9.3,9.3Z"/>
  <rect class="cls-1" x="40.1" y="18.3" width="9.3" height="9.3"/>
</svg>