<?xml version="1.0" encoding="UTF-8"?>
<svg id="Layer_2" data-name="Layer 2" xmlns="http://www.w3.org/2000/svg" version="1.1" viewBox="0 0 193.9 55.1">
  <defs>
    <style>
      .cls-1 {
        fill: #333;
        fill-rule: evenodd;
        stroke-width: 0px;
      }
    </style>
  </defs>
  <path class="cls-1" d="M83.3,0c3.8,0,6.8,3,6.8,6.8v7h-7c-3.8,0-6.8-3-6.8-6.8V0h7ZM96.9,13.8c-3.8,0-6.8,3-6.8,6.8v7h7c3.8,0,6.8-3,6.8-6.8v-7h-7ZM103.8,6.8c0-3.8,3-6.8,6.8-6.8h7v7c0,3.8-3,6.8-6.8,6.8h-7v-7ZM97,41.3c3.8,0,6.8,3,6.8,6.8v7h-7c-3.8,0-6.8-3-6.8-6.8v-7h7ZM76.3,27.6h-7c-3.8,0-6.8-3-6.8-6.8v-7h7c3.8,0,6.8,3,6.8,6.8v7ZM76.3,27.6v7c0,3.8,3,6.8,6.8,6.8h7v-7c0-3.8-3-6.8-6.8-6.8h-7ZM110.6,27.6c-3.8,0-6.8,3-6.8,6.8v7h7c3.8,0,6.8-3,6.8-6.8v-7h7c3.8,0,6.8-3,6.8-6.8v-7h-7c-3.8,0-6.8,3-6.8,6.8v7h-7Z"/>
</svg>