<?xml version="1.0" encoding="UTF-8"?>
<svg id="Layer_2" data-name="Layer 2" xmlns="http://www.w3.org/2000/svg" version="1.1" viewBox="0 0 193.9 55.1">
  <defs>
    <style>
      .cls-1 {
        fill: #333;
        stroke-width: 0px;
      }
    </style>
  </defs>
  <g id="layer1">
    <g id="g886">
      <path id="path839" class="cls-1" d="M72.8,11.1h-33.5c-.2,0-.4,0-.6.2-.1.1-.2.3-.2.5v31.4c0,.2,0,.4.2.5.1.1.3.2.6.2h33.5c.2,0,.4,0,.6-.2.1-.1.2-.3.2-.5V11.9c0-.2,0-.4-.2-.5-.1-.1-.3-.2-.6-.2ZM61.8,32.3c0,.2,0,.4-.2.5-.1.1-.3.2-.6.2h-10.1c-.2,0-.4,0-.6-.2-.1-.1-.2-.3-.2-.5v-9.5c0-.2,0-.4.2-.5.1-.1.3-.2.6-.2h10.1c.2,0,.4,0,.6.2.1.1.2.3.2.5v9.5Z"/>
      <path id="path841" class="cls-1" d="M143,22.1h-10.1c-.4,0-.8.3-.8.7v9.5c0,.4.3.7.8.7h10.1c.4,0,.8-.3.8-.7v-9.5c0-.4-.3-.7-.8-.7h0Z"/>
      <path id="path843" class="cls-1" d="M131.3,11.1h-10.1c-.4,0-.8.3-.8.7v9.5c0,.4.3.7.8.7h10.1c.4,0,.8-.3.8-.7v-9.5c0-.4-.3-.7-.8-.7Z"/>
      <path id="path845" class="cls-1" d="M154.7,11.1h-10.1c-.4,0-.8.3-.8.7v9.5c0,.4.3.7.8.7h10.1c.4,0,.8-.3.8-.7v-9.5c0-.4-.3-.7-.8-.7Z"/>
      <path id="path847" class="cls-1" d="M131.3,33h-10.1c-.4,0-.8.3-.8.7v9.5c0,.4.3.7.8.7h10.1c.4,0,.8-.3.8-.7v-9.5c0-.4-.3-.7-.8-.7Z"/>
      <path id="path849" class="cls-1" d="M154.7,33h-10.1c-.4,0-.8.3-.8.7v9.5c0,.4.3.7.8.7h10.1c.4,0,.8-.3.8-.7v-9.5c0-.4-.3-.7-.8-.7Z"/>
      <path id="path851" class="cls-1" d="M113.7,11.1h-10.1c-.4,0-.8.3-.8.7v9.5c0,.4.3.7.8.7h10.1c.4,0,.8-.3.8-.7v-9.5c0-.4-.3-.7-.8-.7Z"/>
      <path id="path853" class="cls-1" d="M113.7,33h-10.1c-.4,0-.8.3-.8.7v9.5c0,.4.3.7.8.7h10.1c.4,0,.8-.3.8-.7v-9.5c0-.4-.3-.7-.8-.7Z"/>
      <path id="path855" class="cls-1" d="M102.8,22.8c0-.2,0-.4-.2-.5-.1-.1-.3-.2-.6-.2h-10.9v-10.2c0-.2,0-.4-.2-.5-.1-.1-.3-.2-.6-.2h-10.1c-.2,0-.4,0-.6.2-.1.1-.2.3-.2.5v31.4c0,.2,0,.4.2.5.1.1.3.2.6.2h10.1c.2,0,.4,0,.6-.2s.2-.3.2-.5v-10.2h10.9c.2,0,.4,0,.6-.2.1-.1.2-.3.2-.5v-9.5Z"/>
    </g>
  </g>
</svg>