<?xml version="1.0" encoding="UTF-8"?>
<svg id="Layer_2" data-name="Layer 2" xmlns="http://www.w3.org/2000/svg" version="1.1" viewBox="0 0 193.9 55.1">
  <defs>
    <style>
      .cls-1 {
        fill: #333;
        stroke-width: 0px;
      }
    </style>
  </defs>
  <path class="cls-1" d="M88.6,11.2c0-.5,0-.7,0-.9.1-.5.4-.9.8-1.2.2-.1.4-.2.8-.4L112.4.1c.3,0,.4-.1.5-.1.2,0,.5.1.6.4,0,0,0,.2,0,.5v17.9c0,.5,0,.7,0,.9-.1.5-.4.9-.8,1.2-.2.1-.4.2-.8.4l-22.2,8.5c-.3,0-.4.1-.5.1-.2,0-.5-.1-.6-.4,0,0,0-.2,0-.5V11.2Z"/>
  <path class="cls-1" d="M80.4,36.5c0-.5,0-.7,0-.9.1-.5.4-.9.8-1.2.2-.1.4-.2.8-.4l22.2-8.7c.3,0,.4-.1.5-.1.2,0,.5.1.6.4,0,0,0,.2,0,.5v17.9c0,.5,0,.7,0,.9-.1.5-.4.9-.8,1.2-.2.1-.4.2-.8.4l-22.2,8.5c-.3,0-.4.1-.5.1-.2,0-.5-.1-.6-.4,0,0,0-.2,0-.5v-17.7Z"/>
</svg>