<?xml version="1.0" encoding="UTF-8"?>
<svg id="Layer_3" data-name="Layer 3" xmlns="http://www.w3.org/2000/svg" version="1.1" viewBox="0 0 193.9 55.1">
  <defs>
    <style>
      .cls-1 {
        fill: #333;
        stroke-width: 0px;
      }
    </style>
  </defs>
  <path class="cls-1" d="M115.6,26.7c-.2-.2-.4-.2-.6-.2l-14.5,2h-1.1c0,.1,1.2.3,1.2.3l2.6.4-.3,4.6,12-1.7c.2,0,.3,0,.4-.2.1-.1.2-.3.2-.4l.2-4.2h0c0-.2,0-.4-.2-.6Z"/>
  <path class="cls-1" d="M98.2,10.9l6.6-.9c0,0,.2,0,.2-.1s.1-.2.1-.2v-2.3c.1,0,.1,0,.1,0,0-.1,0-.2-.1-.3,0,0-.2-.1-.3-.1l-8.6,1.2,2.1.3v2.5Z"/>
  <path class="cls-1" d="M125.3,0l-58.4,8.2v1c0,0-.2,2.9-.2,2.9v1.4c0,0,0,0,0,0l2.2,4.3,1.9-.3-.2,3.6v1.4c0,0,0,0,0,0l-.5,10.1-.8,13h0c0,.8,0,1.5.4,2.2,0,0,0,.1,0,.2h0s2.9,5.2,2.9,5.2c.1.2.2.4.4.5h0c.5.5,1.1.8,1.8,1.1.7.2,1.4.3,2.2.2l15.3-2.2c3-.4,4.2-1.5,4.2-1.5v.9c0,0,9.3-1.3,9.3-1.3v-1c0,0,.4-5.5.4-5.5l15.2-2.1c1.2-.2,2.1-.7,2.9-1.5.8-.9,1.2-1.9,1.3-3.1l.4-7.3h0s.1-2,.1-2h0s.5-9.4.5-9.4v-1c0,0,.8-12.5.8-12.5v-1.4c0,0-2.1-4.3-2.1-4.3ZM94.9,5.4l11.8-1.7c.3,0,.6,0,.9,0,.3,0,.5.2.8.4.2.2.4.4.5.7.1.3.2.6.2.9l-.3,4.8c0,.5-.2.9-.5,1.3-.3.4-.7.6-1.2.6h-.8c0,.1,2,3.3,2,3.3l-3.7.5-2-3.2-4.5.6-.2,3.6-3.7.5.7-12.5ZM80.6,17.3l.6-10,3.7-.5-.5,9-2,.9,6.9-1c0,0,.2,0,.2-.1,0,0,.1-.2.1-.3l.5-9.3h0s3.7-.5,3.7-.5l-.6,10.9c0,.5-.2.9-.5,1.3-.3.4-.7.6-1.2.6l-8.5,1.2c-.3,0-.6,0-.9,0-.3,0-.5-.2-.8-.4-.2-.2-.4-.4-.5-.7-.1-.3-.2-.6-.2-.9ZM67.8,12.1l.2-2.9,12.5-1.7-.2,2.9-6.2.9,2.1.3-.5,9-4.1.6.5-9.6-4.3.6ZM122.6,24.2l-.5,9.3c0,.9-.4,1.7-1,2.3-.6.7-1.4,1-2.2,1.2l-16.2,2.3-.4,6.4-7,1,.8-13.8v-1.8c.1,0,3.1-.4,3.1-.4l-2.7-5.3-1.2-2.3-1.4,2.6-3.3,6.2,3-.4v1.8c-.1,0-.7,10.7-.7,10.7,0,.9-.4,1.7-1,2.3-.6.6-1.4,1-2.2,1.2l-15.3,2.2c-.6,0-1.1,0-1.7-.1-.5-.2-1-.4-1.4-.8-.4-.4-.7-.8-.9-1.3-.2-.5-.3-1.1-.3-1.7l1.1-18.2,6.6-.9-.9,16.3-3.5,1.6,12.5-1.8c.2,0,.3-.1.4-.2.1-.1.2-.3.2-.5l1-16.8,5.2-.7,2.9-5.4,2.4,4.7,20.9-2.9c.5,0,1,0,1.5.1.5.2.9.4,1.2.7.3.3.6.7.8,1.2h0c.2.4.3.9.3,1.5ZM123.2,13.8l-6.3.9-3.3-9.4-2.2.3,2.1.3-.5,9.3-3.7.5.7-12.5,6.3-.9,3.3,9.4.6-9.9,3.7-.5-.7,12.5Z"/>
</svg>